<svg xmlns="http://www.w3.org/2000/svg">
  <symbol id="settings" width="24" height="24" viewBox="0 0 24 24" fill="none" stroke="currentColor" stroke-width="2" stroke-linecap="round" stroke-linejoin="round" class="lucide lucide-settings-icon lucide-settings">
    <path d="M9.671 4.136a2.34 2.34 0 0 1 4.659 0 2.34 2.34 0 0 0 3.319 1.915 2.34 2.34 0 0 1 2.33 4.033 2.34 2.34 0 0 0 0 3.831 2.34 2.34 0 0 1-2.33 4.033 2.34 2.34 0 0 0-3.319 1.915 2.34 2.34 0 0 1-4.659 0 2.34 2.34 0 0 0-3.32-1.915 2.34 2.34 0 0 1-2.33-4.033 2.34 2.34 0 0 0 0-3.831A2.34 2.34 0 0 1 6.35 6.051a2.34 2.34 0 0 0 3.319-1.915"/><circle cx="12" cy="12" r="3"/>
  </symbol>
  <symbol id="unread" width="24" height="24" viewBox="0 0 24 24" fill="currentColor">
    <circle cx="12" cy="12" r="4"/>
  </symbol>
  <symbol id="edit" width="24" height="24" viewBox="0 0 24 24" fill="none" stroke="currentColor" stroke-width="2"><path d="M11 4H4a2 2 0 0 0-2 2v14a2 2 0 0 0 2 2h14a2 2 0 0 0 2-2v-7"/><path d="M18.5 2.5a2.121 2.121 0 0 1 3 3L12 15l-4 1 1-4 9.5-9.5z"/></symbol>
  <symbol id="tree" width="24" height="24" viewBox="0 0 24 24" fill="none" stroke="currentColor" stroke-width="2"><path d="M5 8h6"/><path d="M5 12h10"/><path d="M5 16h6"/><path d="M7 4v16"/><path d="M13 4v16"/></symbol>
  <symbol id="check" width="24" height="24" viewBox="0 0 24 24" fill="none" stroke="currentColor" stroke-width="2"><polyline points="20 6 9 17 4 12"/></symbol>
  <symbol id="arrow-left" width="24" height="24" viewBox="0 0 24 24" fill="none" stroke="currentColor" stroke-width="2"><path d="M19 12H5"/><polyline points="12 19 5 12 12 5"/></symbol>
  <symbol id="trash-2" width="24" height="24" viewBox="0 0 24 24" fill="none" stroke="currentColor" stroke-width="2">
    <path d="M3 6h18"/><path d="M19 6v14c0 1-1 2-2 2H7c-1 0-2-1-2-2V6"/>
    <path d="M8 6V4c0-1 1-2 2-2h4c1 0 2 1 2 2v2"/>
    <line x1="10" x2="10" y1="11" y2="17"/><line x1="14" x2="14" y1="11" y2="17"/>
  </symbol>
  <symbol id="file-code" width="24" height="24" viewBox="0 0 24 24" fill="none" stroke="currentColor" stroke-width="2">
    <path d="M4 22h14a2 2 0 0 0 2-2V7l-5-5H6a2 2 0 0 0-2 2v4"/>
    <path d="M14 2v4a2 2 0 0 0 2 2h4"/>
    <path d="m5 12-3 3 3 3"/><path d="m9 18 3-3-3-3"/>
  </symbol>
  <symbol id="archive" width="24" height="24" viewBox="0 0 24 24" fill="none" stroke="currentColor" stroke-width="2">
    <rect x="2" y="3" width="20" height="5" rx="1"/><path d="M4 8v11a2 2 0 0 0 2 2h12a2 2 0 0 0 2-2V8"/><path d="M10 12h4"/>
  </symbol>
</svg>