<!DOCTYPE svg PUBLIC "-//W3C//DTD SVG 20010904//EN" "http://www.w3.org/TR/2001/REC-SVG-20010904/DTD/svg10.dtd">
<svg version="1.0" xmlns="http://www.w3.org/2000/svg" width="176px" height="232px" viewBox="0 0 1760 2320" preserveAspectRatio="xMidYMid meet">
<g id="layer101" fill="#291c0c" stroke="none">
<path d="M558 2160 c-16 -16 -40 -30 -52 -30 -55 0 -74 -71 -30 -109 l26 -23 -78 -38 c-44 -21 -98 -54 -120 -74 -55 -47 -95 -132 -102 -216 -4 -54 -10 -71 -35 -99 -16 -19 -46 -69 -65 -110 -61 -128 -47 -235 42 -320 20 -19 39 -32 42 -28 4 4 -1 26 -10 50 -25 67 -21 161 9 214 14 23 29 43 33 43 4 0 24 -34 45 -76 42 -84 116 -170 164 -190 19 -8 68 -14 116 -14 78 0 85 -2 109 -27 20 -22 69 -96 114 -174 1 -3 -13 -36 -33 -74 -34 -65 -35 -72 -31 -144 4 -53 19 -118 51 -216 25 -77 55 -176 67 -220 30 -113 48 -156 78 -188 30 -31 58 -34 123 -12 41 14 48 14 75 0 45 -23 138 -19 208 10 34 14 64 21 70 16 23 -17 63 -20 83 -6 27 19 36 42 82 226 22 86 50 181 61 212 31 81 34 275 6 306 -11 11 -25 21 -33 21 -20 0 -17 7 33 106 58 112 56 124 -23 124 -32 0 -64 4 -72 9 -12 8 -14 64 -15 333 0 280 2 327 16 354 20 36 80 110 90 109 4 0 23 16 42 34 59 57 45 120 -29 136 -16 4 -45 14 -64 22 -28 13 -41 13 -66 4 -17 -6 -45 -11 -62 -11 -37 0 -59 -24 -66 -70 -3 -19 -14 -60 -26 -90 -14 -38 -21 -80 -21 -135 -1 -80 -20 -239 -30 -249 -3 -3 -21 18 -40 47 -18 29 -55 80 -82 114 -49 62 -49 63 -31 87 10 14 22 26 26 26 5 0 29 16 53 36 64 53 55 102 -21 119 -16 4 -48 13 -70 22 -31 11 -48 12 -69 4 -15 -6 -41 -11 -57 -11 -50 0 -69 -16 -69 -59 l0 -38 -62 15 c-35 8 -65 16 -66 18 -9 7 44 64 59 64 20 0 49 36 49 61 0 10 -28 41 -62 69 -59 49 -64 51 -105 45 -31 -4 -49 -2 -65 9 -35 25 -76 20 -110 -14z"/>
</g>
<g id="layer102" fill="#684316" stroke="none">
<path d="M558 2160 c-16 -16 -40 -30 -52 -30 -55 0 -74 -71 -30 -109 l26 -23 -78 -38 c-44 -21 -98 -54 -120 -74 -55 -47 -95 -132 -102 -216 -4 -54 -10 -71 -35 -99 -16 -19 -46 -69 -65 -110 -61 -128 -47 -235 42 -320 20 -19 39 -32 42 -28 4 4 -1 26 -10 50 -25 67 -21 161 9 214 14 23 29 43 33 43 4 0 24 -34 45 -76 42 -84 116 -170 164 -190 19 -8 68 -14 116 -14 78 0 85 -2 109 -27 20 -22 69 -96 114 -174 1 -3 -13 -36 -33 -74 -34 -65 -35 -72 -31 -144 4 -53 19 -118 51 -216 25 -77 55 -176 67 -220 30 -113 48 -156 78 -188 30 -31 58 -34 123 -12 41 14 48 14 75 0 45 -23 138 -19 208 10 34 14 64 21 70 16 23 -17 63 -20 83 -6 27 19 36 42 82 226 22 86 50 181 61 212 31 81 34 275 6 306 -11 11 -25 21 -33 21 -20 0 -17 7 33 106 58 112 56 124 -23 124 -32 0 -64 4 -72 9 -12 8 -14 64 -15 333 0 280 2 327 16 354 20 36 80 110 90 109 4 0 23 16 42 34 59 57 45 120 -29 136 -16 4 -45 14 -64 22 -28 13 -41 13 -66 4 -17 -6 -45 -11 -62 -11 -37 0 -59 -24 -66 -70 -3 -19 -14 -60 -26 -90 -14 -38 -21 -80 -21 -135 -1 -80 -20 -239 -30 -249 -3 -3 -21 18 -40 47 -18 29 -55 80 -82 114 -49 62 -49 63 -31 87 10 14 22 26 26 26 5 0 29 16 53 36 64 53 55 102 -21 119 -16 4 -48 13 -70 22 -31 11 -48 12 -69 4 -15 -6 -41 -11 -57 -11 -50 0 -69 -16 -69 -59 l0 -38 -62 15 c-35 8 -65 16 -66 18 -9 7 44 64 59 64 20 0 49 36 49 61 0 10 -28 41 -62 69 -59 49 -64 51 -105 45 -31 -4 -49 -2 -65 9 -35 25 -76 20 -110 -14z m152 -47 c0 -43 -5 -41 -13 5 -4 18 -2 32 3 32 6 0 10 -16 10 -37z m145 -22 c3 -5 -10 -25 -29 -45 -37 -40 -84 -48 -123 -21 -14 10 -32 13 -50 9 -28 -6 -28 -6 5 15 37 24 43 25 40 9 -3 -13 38 -38 63 -38 25 0 69 39 69 61 0 20 15 26 25 10z m612 -93 c20 -23 71 -23 95 -1 10 9 18 30 18 47 0 24 3 27 10 16 14 -22 12 -34 -10 -60 -11 -13 -20 -30 -20 -38 0 -11 -3 -12 -14 -2 -8 6 -40 12 -71 13 -35 1 -50 4 -40 9 11 7 12 15 4 35 -5 14 -6 35 -2 47 7 18 8 16 11 -14 2 -19 11 -43 19 -52z m-857 38 c8 -3 3 -4 -11 -1 -17 3 -31 -1 -39 -10 -7 -8 -18 -15 -24 -15 -6 0 -2 8 9 16 11 8 19 20 17 25 -1 6 4 6 15 1 10 -5 25 -12 33 -16z m403 -98 c6 -37 5 -38 -26 -38 -18 0 -39 5 -47 10 -10 6 -3 7 24 3 37 -6 39 -5 33 16 -3 13 -3 29 0 37 7 19 9 16 16 -28z m-501 -183 c-11 -108 -29 -192 -38 -182 -3 3 2 32 10 65 10 38 16 110 17 198 2 127 3 134 12 84 8 -39 7 -86 -1 -165z m648 190 c0 -14 -9 -33 -20 -42 -27 -24 -25 -31 13 -41 26 -8 29 -11 14 -17 -11 -5 -25 -1 -37 10 -11 10 -34 21 -52 25 l-33 8 30 1 c45 1 78 28 72 57 -2 13 0 24 4 24 5 0 9 -11 9 -25z m-415 -106 c-26 -50 -27 -61 -37 -303 -5 -138 -14 -260 -19 -271 -6 -13 -8 8 -4 65 2 47 8 164 11 260 6 173 18 236 51 288 26 42 25 15 -2 -39z m240 24 c19 -9 35 -20 35 -25 0 -6 -58 22 -79 39 -12 9 12 1 44 -14z m84 -57 c12 -13 19 -26 14 -29 -4 -2 -18 9 -31 24 -28 35 -15 39 17 5z m-47 -43 c10 -9 18 -22 18 -30 0 -16 5 -16 30 -1 29 19 50 2 84 -68 40 -83 38 -131 -8 -223 l-37 -72 10 -112 c6 -62 11 -115 11 -119 0 -5 9 -8 20 -8 11 0 20 -4 20 -10 0 -5 -9 -10 -19 -10 -40 0 -60 -56 -67 -189 l-7 -123 44 4 c33 4 57 -1 95 -19 50 -23 51 -23 115 -7 54 14 72 15 112 4 27 -7 49 -11 50 -9 1 2 13 25 27 51 30 58 39 56 11 -3 -27 -54 -26 -63 3 -78 32 -18 66 -81 66 -124 0 -27 -9 -45 -37 -76 -21 -22 -43 -48 -50 -58 -6 -10 -12 -13 -12 -8 -1 6 19 35 44 65 25 30 45 64 45 74 0 11 -9 39 -21 62 -26 56 -103 96 -179 96 -49 -1 -104 -19 -101 -34 0 -5 1 -27 1 -51 0 -38 3 -44 35 -61 27 -15 35 -26 35 -46 0 -37 -33 -64 -76 -63 -75 2 -98 70 -37 108 33 20 40 44 27 93 -16 58 -176 89 -251 49 -96 -51 -117 -123 -58 -201 21 -29 23 -42 27 -191 3 -100 9 -169 17 -185 7 -14 30 -33 52 -43 21 -10 39 -23 39 -28 0 -14 -12 -10 -55 19 -54 37 -64 72 -72 250 -5 132 -9 151 -30 182 -33 49 -32 118 2 158 19 23 25 41 25 80 0 43 -5 56 -33 85 -41 44 -91 56 -136 33 -19 -10 -31 -12 -31 -6 0 6 16 18 35 26 78 32 167 -30 180 -127 7 -47 7 -48 33 -37 46 20 49 29 56 145 l6 113 -25 -10 c-38 -14 -120 -12 -158 4 -72 30 -140 149 -163 286 -20 119 -9 169 46 209 33 23 38 32 43 79 3 30 13 64 22 78 16 24 49 32 60 14 10 -16 25 -11 25 9 0 25 37 71 57 71 9 0 25 -7 35 -17z m-799 -312 c-8 -12 -14 13 -18 75 l-4 69 12 -70 c7 -38 12 -72 10 -74z m247 96 c0 -7 -7 -22 -15 -33 -13 -17 -14 -16 -4 14 11 33 19 41 19 19z m795 -192 c-13 -94 -14 -95 -9 -25 6 90 17 161 21 140 2 -8 -4 -60 -12 -115z m-859 6 c-16 -56 -25 -60 -13 -6 6 25 14 45 18 45 4 0 2 -18 -5 -39z m902 -242 c31 -1 84 -5 117 -9 60 -7 60 -7 -25 -7 -88 -1 -250 13 -192 15 l32 2 2 68 2 67 3 -67 4 -68 57 -1z m-628 64 c-11 -17 -11 -17 -6 0 3 10 7 28 7 40 2 22 2 22 6 0 2 -12 -1 -30 -7 -40z m805 -809 c-8 -38 -15 -78 -15 -89 -1 -24 -38 -110 -45 -103 -3 3 1 18 10 34 8 16 17 45 20 64 13 83 27 156 32 163 12 20 12 -5 -2 -69z m-294 -4 c37 -20 18 -81 -25 -79 -17 1 -18 2 -3 6 19 5 23 28 7 38 -6 3 -13 -1 -16 -9 -8 -21 -24 -20 -24 1 0 15 27 53 37 53 2 0 13 -5 24 -10z m183 -6 c9 -8 16 -22 16 -29 0 -15 -27 -45 -40 -45 -5 0 -12 5 -15 10 -3 6 -1 10 4 10 6 0 11 7 11 15 0 18 -27 20 -32 3 -3 -9 -6 -9 -12 0 -7 11 26 52 43 52 5 0 17 -7 25 -16z"/>
<path d="M959 1743 c-9 -10 -14 -41 -14 -84 0 -38 -2 -69 -5 -69 -3 0 -12 20 -19 44 -11 40 -26 56 -50 56 -14 0 -31 -51 -31 -94 0 -24 7 -63 16 -87 18 -48 21 -205 6 -314 -7 -45 -9 -15 -8 120 1 131 -3 186 -12 203 -13 22 -13 22 -43 5 -58 -34 -70 -90 -48 -222 13 -75 63 -183 104 -223 34 -34 96 -52 153 -44 99 13 110 37 98 215 l-9 132 37 73 c35 71 46 129 26 141 -5 3 -10 -2 -10 -12 0 -10 -4 -24 -8 -31 -5 -7 -6 14 -4 46 4 58 -16 122 -37 122 -30 0 -41 -15 -42 -54 -1 -69 -17 -90 -18 -23 -1 95 -44 147 -82 100z"/>
</g>
<g id="layer103" fill="#043192" stroke="none">
<path d="M554 2156 c-21 -20 -42 -32 -50 -29 -22 8 -54 -26 -54 -57 0 -16 10 -35 25 -48 14 -12 25 -18 25 -13 0 5 14 12 30 16 31 7 40 29 16 38 -19 7 -27 57 -10 57 8 0 14 -8 14 -18 0 -39 54 -66 100 -50 34 11 52 44 43 77 -4 15 -1 21 12 21 14 0 17 -6 11 -32 -11 -63 -11 -70 5 -81 9 -5 32 -7 51 -3 27 5 39 14 48 36 14 34 30 38 53 12 21 -23 22 -39 2 -22 -11 9 -15 9 -15 1 0 -7 -4 -10 -9 -7 -10 7 -26 -24 -30 -56 -1 -9 -4 -9 -13 0 -7 7 -31 12 -55 12 -23 0 -48 6 -55 13 -14 15 -93 12 -143 -5 -70 -24 -213 -99 -251 -132 -55 -47 -95 -132 -102 -216 -4 -54 -10 -71 -35 -99 -16 -19 -46 -69 -65 -110 -61 -128 -47 -235 42 -320 20 -19 39 -32 42 -28 4 4 -1 26 -10 50 -25 67 -21 161 9 214 14 23 29 43 33 43 4 0 24 -34 45 -76 42 -84 116 -170 164 -190 19 -8 68 -14 116 -14 78 0 85 -2 109 -27 14 -16 45 -59 68 -98 23 -38 44 -72 46 -73 1 -2 18 1 38 8 19 6 51 8 71 4 38 -7 104 -62 106 -89 1 -8 3 -19 4 -25 1 -5 3 -21 4 -35 1 -22 4 -25 29 -19 39 9 41 13 47 79 3 33 8 83 10 111 l5 52 -64 -5 c-35 -3 -80 -3 -99 1 -37 7 -107 67 -107 91 0 8 -3 15 -8 15 -10 0 -49 85 -61 135 -5 22 -13 68 -17 102 -3 35 -10 61 -14 58 -4 -2 -8 -39 -10 -82 -3 -108 -13 -166 -28 -171 -11 -3 -12 0 -4 14 10 19 17 138 28 434 3 91 9 174 14 185 32 77 54 115 59 106 4 -6 19 -8 34 -6 25 5 26 4 15 -20 -14 -31 -28 -33 -23 -2 4 21 4 21 -10 3 -8 -10 -12 -23 -9 -27 3 -5 -2 -9 -10 -9 -9 0 -17 -4 -17 -10 -3 -20 -4 -25 -12 -37 -4 -6 -4 -19 -1 -28 4 -10 1 -21 -7 -26 -12 -8 -12 -11 1 -19 8 -5 10 -10 4 -10 -6 0 -11 -6 -11 -12 -4 -71 -13 -228 -14 -234 -1 -5 -1 -15 0 -22 1 -18 21 -5 21 14 0 20 41 74 56 74 18 0 25 15 29 58 1 20 6 46 11 56 6 15 4 17 -7 11 -8 -5 -4 3 9 17 12 13 20 27 17 30 -3 3 6 3 20 1 16 -4 25 -1 25 7 0 7 8 2 18 -11 l19 -22 -2 45 c-1 36 2 45 14 43 19 -3 51 32 50 54 0 9 -3 11 -5 5 -7 -16 -44 -5 -38 11 3 7 -1 15 -9 18 -9 3 -12 15 -9 35 4 28 6 30 29 21 33 -12 43 -4 38 31 -2 20 1 30 9 30 9 0 12 -9 9 -24 -6 -30 27 -66 61 -66 14 0 38 11 53 24 22 20 26 27 15 37 -18 19 -15 28 7 22 25 -6 21 -51 -8 -74 -24 -19 -13 -34 29 -41 24 -4 23 -5 -12 -23 -20 -10 -34 -23 -31 -28 3 -6 1 -7 -6 -3 -9 6 -9 11 0 22 8 10 8 17 -3 27 -19 20 -120 49 -154 45 -29 -3 -29 -3 16 -27 63 -33 127 -84 123 -97 -2 -6 12 -29 31 -50 22 -24 36 -49 36 -66 0 -15 4 -29 10 -33 5 -3 7 -12 4 -20 -3 -7 -1 -23 5 -34 8 -13 8 -22 1 -26 -6 -4 -8 -11 -4 -16 3 -5 -4 -26 -15 -45 -12 -19 -21 -41 -21 -49 0 -7 -5 -15 -10 -17 -10 -3 -24 -51 -21 -73 0 -5 3 -52 6 -103 2 -51 6 -96 9 -100 3 -4 21 -9 42 -10 20 -2 41 -5 46 -8 4 -3 8 3 9 13 6 114 15 207 25 253 3 19 7 58 8 87 0 29 5 48 9 44 12 -12 11 -32 -9 -210 -21 -188 -21 -186 63 -190 27 -1 75 -6 108 -10 l60 -8 -85 -1 c-47 0 -119 2 -160 6 -101 9 -116 6 -139 -32 -16 -25 -22 -58 -27 -156 l-7 -123 46 5 c36 4 58 0 96 -18 50 -24 51 -24 111 -7 53 14 68 15 111 4 28 -7 51 -12 52 -10 1 2 13 25 27 52 13 26 26 47 27 47 17 0 53 -23 48 -30 -5 -8 -11 -7 -20 0 -15 13 -35 6 -35 -12 0 -7 6 -6 15 2 12 10 15 9 15 -5 0 -17 1 -17 20 0 18 16 20 16 20 2 0 -10 -3 -16 -7 -15 -5 2 -8 -1 -8 -7 0 -5 6 -9 13 -9 6 1 12 -2 12 -7 0 -5 -6 -9 -14 -9 -8 0 -16 -3 -19 -7 -2 -5 -2 -3 -1 4 4 16 -13 26 -21 13 -3 -5 -15 -10 -26 -10 -10 0 -19 -4 -19 -8 0 -15 56 -62 65 -55 4 5 5 3 1 -4 -3 -6 -1 -15 5 -18 5 -4 8 -13 5 -21 -3 -8 -1 -14 4 -14 12 0 5 -67 -9 -84 -6 -7 -7 -16 -3 -20 4 -4 -1 -14 -11 -21 -10 -7 -19 -19 -21 -27 -3 -22 -17 -39 -27 -33 -5 4 -9 -3 -9 -14 0 -12 6 -21 13 -22 6 0 2 -5 -10 -11 -20 -10 -39 -68 -21 -68 4 0 8 -4 8 -10 0 -5 -7 -7 -15 -4 -8 4 -15 1 -15 -5 0 -6 6 -11 13 -11 8 0 7 -4 -3 -10 -14 -9 -13 -11 10 -14 6 0 9 -5 8 -11 0 -5 -9 -9 -20 -7 -13 2 -18 -3 -17 -20 0 -22 1 -22 9 -3 8 18 9 18 9 2 1 -10 -6 -20 -14 -23 -8 -4 -12 -10 -9 -15 3 -5 9 -7 14 -4 5 3 12 1 15 -5 4 -6 3 -10 -2 -9 -18 3 -53 -14 -53 -26 0 -7 -6 -15 -12 -18 -10 -3 -10 -7 1 -20 9 -11 10 -17 2 -17 -6 0 -11 5 -11 10 0 6 -5 10 -11 10 -5 0 -7 -4 -4 -10 4 -6 -6 -10 -21 -10 -24 0 -26 2 -13 12 49 41 72 91 85 186 8 54 19 108 25 122 11 24 12 24 20 5 8 -18 9 -17 5 4 -5 25 14 62 51 99 36 35 34 96 -3 130 -14 12 -22 22 -18 22 10 0 -29 29 -39 30 -5 0 -5 -6 -1 -12 5 -9 2 -8 -9 1 -10 8 -32 15 -50 16 -17 2 -34 4 -37 5 -3 1 -9 1 -15 0 -5 -1 -19 -3 -31 -4 -25 -3 -58 -35 -62 -59 -4 -23 16 -57 33 -57 18 0 44 -37 40 -58 -2 -9 -4 -20 -4 -24 -2 -17 -62 -38 -88 -32 -62 15 -81 61 -43 104 11 13 20 20 20 15 0 -4 7 -2 15 5 15 12 15 31 0 77 -5 16 -15 23 -32 23 -15 0 -22 4 -18 11 5 7 -3 9 -24 6 -17 -3 -31 -1 -31 4 0 5 -10 7 -22 5 -13 -3 -27 -5 -31 -5 -5 -1 -5 -7 -1 -13 5 -9 2 -9 -9 1 -9 7 -17 10 -17 7 0 -4 -9 -2 -20 4 -14 7 -20 7 -20 0 0 -5 -3 -9 -7 -9 -37 6 -101 -55 -98 -92 2 -37 15 -72 35 -94 15 -17 19 -44 22 -180 4 -179 12 -207 68 -234 19 -9 35 -22 38 -28 5 -16 -14 -17 -31 -2 -7 5 -27 19 -46 30 -18 11 -31 22 -28 25 3 3 0 20 -7 37 -8 19 -14 88 -15 172 -2 122 -5 144 -22 168 -30 42 -51 107 -39 122 5 7 11 24 12 38 1 14 6 24 10 21 4 -3 12 4 18 15 7 14 7 22 -1 27 -8 4 -7 9 2 15 10 6 6 9 -13 9 -16 0 -28 5 -28 11 0 5 4 8 9 4 6 -3 9 4 8 15 -1 20 -17 29 -17 10 0 -5 -6 -7 -14 -4 -8 3 -17 0 -21 -5 -3 -6 -11 -9 -16 -6 -5 4 -9 0 -9 -8 0 -7 7 -14 15 -14 8 0 15 7 15 15 0 16 7 14 10 -3 1 -5 6 -16 12 -22 7 -9 7 -13 -1 -13 -6 0 -11 4 -11 8 0 5 -14 7 -31 6 -22 -2 -29 2 -25 12 3 8 1 14 -4 14 -6 0 -10 -7 -10 -15 0 -9 -9 -15 -24 -15 -18 0 -27 -8 -34 -29 -6 -16 -8 -31 -6 -33 2 -3 -2 -5 -10 -5 -8 0 -13 8 -11 18 2 11 -1 16 -9 13 -17 -7 -13 65 5 77 8 5 10 9 6 9 -5 0 0 16 12 36 12 19 21 41 21 47 0 7 -16 -19 -36 -57 -35 -66 -36 -73 -32 -145 4 -53 19 -118 51 -216 25 -77 55 -176 67 -220 30 -113 48 -156 78 -188 30 -31 58 -34 123 -12 41 14 48 14 75 0 45 -23 138 -19 208 10 34 14 64 21 70 16 23 -17 63 -20 83 -6 27 19 36 42 82 226 22 86 50 181 61 212 31 81 34 275 6 306 -11 11 -25 21 -33 21 -20 0 -17 7 33 106 58 112 56 124 -23 124 -32 0 -64 4 -72 9 -12 8 -14 64 -15 333 0 280 2 327 16 354 20 36 80 110 90 109 4 0 23 16 42 34 59 57 45 120 -29 136 -16 4 -45 14 -64 22 -28 13 -41 13 -75 3 -23 -7 -45 -14 -51 -15 -5 -2 2 -4 17 -4 25 -1 27 -3 17 -25 -15 -32 2 -63 40 -71 40 -9 81 18 79 51 -1 13 -6 24 -10 24 -4 0 -8 4 -8 8 0 5 14 7 30 4 27 -4 44 -22 20 -22 -5 0 -10 -9 -10 -20 0 -11 -9 -28 -20 -37 -11 -10 -20 -21 -20 -25 0 -7 41 -23 53 -20 4 1 7 -3 7 -8 0 -16 -42 -7 -75 14 -21 14 -46 19 -90 19 -57 -1 -85 8 -85 28 0 5 11 2 25 -7 33 -21 60 -12 45 15 -5 11 -10 27 -10 36 0 9 -7 23 -15 32 -14 14 -18 14 -34 -2 -11 -9 -21 -33 -24 -53 -3 -20 -15 -64 -27 -96 -17 -48 -21 -76 -18 -152 2 -53 -1 -90 -6 -87 -5 4 -7 -15 -3 -43 4 -31 3 -42 -3 -29 -7 16 -9 11 -9 -22 -1 -23 -5 -45 -11 -48 -5 -3 -10 -1 -10 5 0 6 -6 8 -12 4 -7 -4 -10 -4 -6 0 8 10 -29 71 -94 153 -49 62 -49 63 -31 87 10 14 22 26 26 26 5 0 29 16 53 36 64 53 55 102 -21 119 -16 4 -48 13 -70 22 -31 11 -48 12 -69 4 -15 -6 -41 -11 -57 -11 -50 0 -69 -16 -69 -59 l0 -38 -62 15 c-35 8 -65 16 -66 18 -9 7 44 64 59 64 20 0 49 36 49 62 0 18 -76 85 -92 80 -5 -1 -7 2 -3 7 10 17 -35 33 -75 26 -28 -5 -46 -2 -62 9 -37 26 -75 20 -114 -18z m111 11 c14 -11 15 -16 5 -22 -8 -5 -11 -4 -7 2 9 14 -11 21 -45 17 -16 -1 -28 2 -28 7 0 14 54 11 75 -4z m213 -146 c-7 -11 -17 -17 -22 -14 -6 4 -5 8 3 11 11 4 11 6 0 13 -10 6 -8 9 9 9 19 0 21 -2 10 -19z m-73 -51 c11 -17 -5 -11 -28 11 l-22 21 22 -11 c12 -6 25 -16 28 -21z m-290 -56 c15 -136 -9 -284 -74 -452 -16 -42 -35 -103 -42 -134 -6 -32 -16 -58 -20 -58 -13 0 0 55 42 175 22 61 39 119 39 130 0 12 5 26 12 33 7 7 8 12 4 12 -5 0 -3 7 4 15 15 18 24 201 10 210 -7 4 -7 13 0 26 7 12 7 19 1 19 -6 0 -8 7 -5 15 4 8 2 15 -4 15 -6 0 -13 -6 -15 -12 -3 -7 -6 -3 -6 9 -1 12 -5 24 -10 27 -13 8 -42 -4 -35 -15 3 -5 10 -7 15 -4 5 4 6 -2 2 -11 -5 -13 -8 -14 -11 -5 -4 11 -6 11 -14 0 -8 -11 -9 -10 -4 4 8 25 -13 21 -24 -5 -5 -13 -9 -18 -9 -11 -1 7 -8 10 -18 7 -27 -9 2 12 58 41 46 24 47 24 52 5 3 -11 11 -20 19 -20 10 0 10 2 -1 9 -17 11 -7 41 13 41 10 0 16 -18 21 -66z m715 31 c14 -16 10 -18 -14 -9 -9 3 -16 10 -16 15 0 14 16 11 30 -6z m-342 -51 c15 -4 21 -12 18 -21 -3 -8 -2 -11 3 -8 5 3 12 1 16 -5 3 -5 1 -11 -4 -11 -21 -3 -26 -4 -39 -13 -12 -7 -12 -4 -2 14 20 37 -20 53 -45 17 -13 -19 -13 -23 2 -39 8 -10 20 -15 24 -12 5 3 9 0 9 -5 0 -16 -16 -13 -30 4 -18 22 -33 18 -27 -7 6 -22 5 -22 -8 -4 -14 19 -15 19 -37 0 -13 -10 -18 -12 -11 -5 6 7 9 19 6 26 -3 10 2 12 18 8 17 -5 20 -3 14 7 -5 8 -4 11 3 6 11 -6 38 31 34 47 -2 9 24 9 56 1z m-568 -22 c-8 -3 -22 -10 -30 -16 -8 -6 -7 -1 4 11 10 13 23 20 29 16 7 -4 6 -8 -3 -11z m539 -18 c-15 -18 -22 -13 -13 10 3 9 10 13 16 10 5 -3 4 -12 -3 -20z m47 -69 c-1 -8 -4 -16 -7 -17 -2 -2 -3 -1 -2 1 1 2 -2 12 -8 22 -7 14 -6 17 5 13 8 -3 13 -12 12 -19z m289 -145 c-3 -4 2 -10 10 -14 8 -3 15 -11 15 -17 0 -8 -7 -6 -18 4 -18 17 -27 51 -10 41 5 -3 6 -9 3 -14z m292 -27 c-3 -10 -5 -2 -5 17 0 19 2 27 5 18 2 -10 2 -26 0 -35z m-1271 -50 c0 -16 4 -52 7 -80 7 -47 6 -53 -10 -52 -10 0 -13 3 -6 5 7 4 8 15 3 37 -17 64 -20 117 -7 117 7 0 12 -12 13 -27z m-69 -315 c-2 -13 -4 -5 -4 17 -1 22 1 32 4 23 2 -10 2 -28 0 -40z m783 -488 c-18 -11 -22 -7 -14 14 5 13 10 14 18 6 8 -8 7 -13 -4 -20z m-79 0 c10 0 19 5 21 12 3 8 6 7 10 -3 4 -11 -2 -16 -22 -17 -16 -1 -32 3 -35 8 -9 14 -35 -7 -35 -27 0 -8 -5 -13 -11 -11 -6 2 -10 7 -10 11 1 4 1 14 1 23 0 10 6 14 15 11 8 -4 17 -1 21 4 4 7 10 7 17 0 6 -6 19 -11 28 -11z m709 -6 c0 -8 6 -11 15 -8 8 4 15 2 15 -3 0 -16 -29 -11 -45 7 -13 15 -13 17 0 17 8 0 15 -6 15 -13z m56 -61 c-11 -11 -17 4 -9 23 7 18 8 18 11 1 2 -10 1 -21 -2 -24z m-862 -15 c-8 -12 10 -10 23 3 9 9 11 7 7 -8 -3 -12 -14 -19 -28 -19 -17 0 -22 5 -18 18 2 10 -1 18 -7 18 -7 0 -9 -4 -6 -10 3 -5 1 -10 -4 -10 -12 0 -15 23 -5 33 8 8 44 -15 38 -25z m449 -313 c25 -24 6 -75 -27 -75 -28 0 -46 18 -46 45 0 41 44 60 73 30z m171 9 c10 -4 16 -18 16 -39 0 -29 -4 -34 -31 -40 -23 -5 -34 -3 -44 12 -20 26 -18 40 7 57 25 18 30 19 52 10z"/>
<path d="M1543 813 c-18 -6 -16 -23 1 -23 17 0 30 16 19 23 -5 2 -14 2 -20 0z"/>
</g>
<g id="layer104" fill="#875615" stroke="none">
<path d="M554 2156 c-21 -20 -42 -32 -50 -29 -22 8 -54 -26 -54 -57 0 -16 10 -35 25 -48 14 -12 25 -18 25 -13 0 5 14 12 30 16 31 7 40 29 16 38 -19 7 -27 57 -10 57 8 0 14 -8 14 -18 0 -39 54 -66 100 -50 34 11 52 44 43 77 -4 15 -1 21 12 21 14 0 17 -6 11 -32 -11 -63 -11 -70 5 -81 9 -5 32 -7 51 -3 27 5 39 14 48 36 14 34 30 38 53 12 21 -23 22 -39 2 -22 -11 9 -15 9 -15 1 0 -7 -4 -10 -9 -7 -10 7 -26 -24 -30 -56 -1 -9 -4 -9 -13 0 -7 7 -31 12 -55 12 -23 0 -48 6 -55 13 -14 15 -93 12 -143 -5 -70 -24 -213 -99 -251 -132 -55 -47 -95 -132 -102 -216 -4 -54 -10 -71 -35 -99 -16 -19 -46 -69 -65 -110 -61 -128 -47 -235 42 -320 20 -19 39 -32 42 -28 4 4 -1 26 -10 50 -25 67 -21 161 9 214 14 23 29 43 33 43 4 0 24 -34 45 -76 42 -84 116 -170 164 -190 19 -8 68 -14 116 -14 78 0 85 -2 109 -27 14 -16 45 -59 68 -98 23 -38 44 -72 46 -73 1 -2 18 1 38 8 19 6 51 8 71 4 38 -7 104 -62 106 -89 1 -8 3 -19 4 -25 1 -5 3 -21 4 -35 1 -22 4 -25 29 -19 39 9 41 13 47 79 3 33 8 83 10 111 l5 52 -64 -5 c-35 -3 -80 -3 -99 1 -37 7 -107 67 -107 91 0 8 -3 15 -8 15 -10 0 -49 85 -61 135 -5 22 -13 68 -17 102 -3 35 -10 61 -14 58 -4 -2 -8 -39 -10 -82 -3 -108 -13 -166 -28 -171 -11 -3 -12 0 -4 14 10 19 17 138 28 434 3 91 9 174 14 185 32 77 54 115 59 106 4 -6 19 -8 34 -6 25 5 26 4 15 -20 -14 -31 -28 -33 -23 -2 4 21 4 21 -10 3 -8 -10 -12 -23 -9 -27 3 -5 -2 -9 -10 -9 -9 0 -17 -4 -17 -10 -3 -20 -4 -25 -12 -37 -4 -6 -4 -19 -1 -28 4 -10 1 -21 -7 -26 -12 -8 -12 -11 1 -19 8 -5 10 -10 4 -10 -6 0 -11 -6 -11 -12 -4 -71 -13 -228 -14 -234 -1 -5 -1 -15 0 -22 1 -18 21 -5 21 14 0 20 41 74 56 74 18 0 25 15 29 58 1 20 6 46 11 56 6 15 4 17 -7 11 -8 -5 -4 3 9 17 12 13 20 27 17 30 -3 3 6 3 20 1 16 -4 25 -1 25 7 0 7 8 2 18 -11 l19 -22 -2 45 c-1 36 2 45 14 43 19 -3 51 32 50 54 0 9 -3 11 -5 5 -7 -16 -44 -5 -38 11 3 7 -1 15 -9 18 -9 3 -12 15 -9 35 4 28 6 30 29 21 33 -12 43 -4 38 31 -2 20 1 30 9 30 9 0 12 -9 9 -24 -6 -30 27 -66 61 -66 14 0 38 11 53 24 22 20 26 27 15 37 -18 19 -15 28 7 22 25 -6 21 -51 -8 -74 -24 -19 -13 -34 29 -41 24 -4 23 -5 -12 -23 -20 -10 -34 -23 -31 -28 3 -6 1 -7 -6 -3 -9 6 -9 11 0 22 8 10 8 17 -3 27 -19 20 -120 49 -154 45 -29 -3 -29 -3 16 -27 63 -33 127 -84 123 -97 -2 -6 12 -29 31 -50 22 -24 36 -49 36 -66 0 -15 4 -29 10 -33 5 -3 7 -12 4 -20 -3 -7 -1 -23 5 -34 8 -13 8 -22 1 -26 -6 -4 -8 -11 -4 -16 3 -5 -4 -26 -15 -45 -12 -19 -21 -41 -21 -49 0 -7 -5 -15 -10 -17 -10 -3 -24 -51 -21 -73 0 -5 3 -52 6 -103 2 -51 6 -96 9 -100 3 -4 21 -9 42 -10 20 -2 41 -5 46 -8 4 -3 8 3 9 13 6 114 15 207 25 253 3 19 7 58 8 87 0 29 5 48 9 44 12 -12 11 -32 -9 -210 -21 -188 -21 -186 63 -190 27 -1 75 -6 108 -11 45 -7 24 -8 -86 -5 l-147 5 -6 -25 c-3 -13 -9 -51 -13 -84 -6 -60 -5 -61 23 -72 47 -19 203 -22 229 -5 20 13 75 129 75 159 0 13 108 12 122 -2 4 -3 -4 -29 -17 -55 -14 -27 -25 -54 -25 -59 0 -5 -9 -20 -20 -34 -27 -35 -25 -61 6 -73 14 -6 22 -15 19 -20 -5 -8 -11 -7 -20 0 -17 14 -38 3 -31 -15 3 -8 0 -16 -7 -18 -7 -2 -9 -8 -5 -12 4 -4 15 -5 24 -1 13 5 14 9 5 20 -8 10 -9 16 -1 21 5 3 10 -2 10 -11 0 -16 1 -16 20 1 18 16 20 16 20 2 0 -10 -3 -16 -7 -15 -5 2 -8 -1 -8 -7 0 -5 6 -9 13 -9 6 1 12 -2 12 -7 0 -5 -6 -9 -14 -9 -8 0 -16 -3 -19 -7 -2 -5 -2 -3 -1 4 4 16 -13 26 -21 13 -3 -5 -15 -10 -26 -10 -10 0 -19 -4 -19 -8 0 -15 56 -62 65 -55 4 5 5 3 1 -4 -3 -6 -1 -15 5 -18 5 -4 8 -13 5 -21 -3 -8 -1 -14 4 -14 12 0 5 -67 -9 -84 -6 -7 -7 -16 -3 -20 4 -4 -1 -14 -11 -21 -10 -7 -19 -19 -21 -27 -3 -22 -17 -39 -27 -33 -5 4 -9 -3 -9 -14 0 -12 6 -21 13 -22 6 0 2 -5 -10 -11 -20 -10 -39 -68 -21 -68 4 0 8 -4 8 -10 0 -5 -7 -7 -15 -4 -8 4 -15 1 -15 -5 0 -6 6 -11 13 -11 8 0 7 -4 -3 -10 -14 -9 -13 -11 10 -14 6 0 9 -5 8 -11 0 -5 -9 -9 -20 -7 -13 2 -18 -3 -17 -20 0 -22 1 -22 9 -3 8 18 9 18 9 2 1 -10 -6 -20 -14 -23 -8 -4 -12 -10 -9 -15 3 -5 9 -7 14 -4 5 3 12 1 15 -5 4 -6 3 -10 -2 -9 -18 3 -53 -14 -53 -26 0 -7 -6 -15 -12 -18 -10 -3 -10 -7 1 -20 9 -11 10 -17 2 -17 -6 0 -11 5 -11 10 0 6 -5 10 -11 10 -5 0 -7 -4 -4 -10 4 -6 -6 -10 -21 -10 -24 0 -26 2 -13 12 49 41 72 91 85 186 8 54 19 108 25 122 11 24 12 24 20 5 8 -18 9 -17 5 4 -5 25 14 62 51 99 36 35 34 96 -3 130 -14 12 -22 22 -18 22 10 0 -29 29 -39 30 -5 0 -5 -6 -1 -12 5 -9 2 -8 -9 1 -10 8 -32 15 -50 16 -17 2 -34 4 -37 5 -3 1 -9 1 -15 0 -5 -1 -19 -3 -31 -4 -25 -3 -58 -35 -62 -59 -4 -23 16 -57 33 -57 18 0 44 -37 40 -58 -2 -9 -4 -20 -4 -24 -2 -17 -62 -38 -88 -32 -62 15 -81 61 -43 104 11 13 20 20 20 15 0 -4 7 -2 15 5 15 12 15 31 0 77 -5 16 -15 23 -32 23 -15 0 -22 4 -18 11 5 7 -3 9 -24 6 -17 -3 -31 -1 -31 4 0 5 -10 7 -22 5 -13 -3 -27 -5 -31 -5 -5 -1 -5 -7 -1 -13 5 -9 2 -9 -9 1 -9 7 -17 10 -17 7 0 -4 -9 -2 -20 4 -14 7 -20 7 -20 0 0 -5 -3 -9 -7 -9 -37 6 -101 -55 -98 -92 2 -37 15 -72 35 -94 15 -17 19 -44 22 -180 4 -179 12 -207 68 -234 19 -9 35 -22 38 -28 5 -16 -14 -17 -31 -2 -7 5 -27 19 -46 30 -18 11 -31 22 -28 25 3 3 0 20 -7 37 -8 19 -14 88 -15 172 -2 122 -5 144 -22 168 -30 42 -51 107 -39 122 5 7 11 24 12 38 1 14 6 24 10 21 4 -3 12 4 18 15 7 14 7 22 -1 27 -8 4 -7 9 2 15 10 6 6 9 -13 9 -16 0 -28 5 -28 11 0 5 4 8 9 4 6 -3 9 4 8 15 -1 20 -17 29 -17 10 0 -5 -6 -7 -14 -4 -8 3 -17 0 -21 -5 -3 -6 -11 -9 -16 -6 -5 4 -9 0 -9 -8 0 -7 7 -14 15 -14 8 0 15 7 15 15 0 16 7 14 10 -3 1 -5 6 -16 12 -22 7 -9 7 -13 -1 -13 -6 0 -11 4 -11 8 0 5 -14 7 -31 6 -22 -2 -29 2 -25 12 3 8 1 14 -4 14 -6 0 -10 -7 -10 -15 0 -9 -9 -15 -24 -15 -18 0 -27 -8 -34 -29 -6 -16 -8 -31 -6 -33 2 -3 -2 -5 -10 -5 -8 0 -13 8 -11 18 2 11 -1 16 -9 13 -17 -7 -13 65 5 77 8 5 10 9 6 9 -5 0 0 16 12 36 12 19 21 41 21 47 0 7 -16 -19 -36 -57 -35 -66 -36 -73 -32 -145 4 -53 19 -118 51 -216 25 -77 55 -176 67 -220 30 -113 48 -156 78 -188 30 -31 58 -34 123 -12 41 14 48 14 75 0 45 -23 138 -19 208 10 34 14 64 21 70 16 23 -17 63 -20 83 -6 27 19 36 42 82 226 22 86 50 181 61 212 31 81 34 275 6 306 -11 11 -25 21 -33 21 -20 0 -17 7 33 106 58 112 56 124 -23 124 -32 0 -64 4 -72 9 -12 8 -14 64 -15 333 0 280 2 327 16 354 20 36 80 110 90 109 4 0 23 16 42 34 59 57 45 120 -29 136 -16 4 -45 14 -64 22 -28 13 -41 13 -75 3 -23 -7 -45 -14 -51 -15 -5 -2 2 -4 17 -4 25 -1 27 -3 17 -25 -15 -32 2 -63 40 -71 40 -9 81 18 79 51 -1 13 -6 24 -10 24 -4 0 -8 4 -8 8 0 5 14 7 30 4 27 -4 44 -22 20 -22 -5 0 -10 -9 -10 -20 0 -11 -9 -28 -20 -37 -11 -10 -20 -21 -20 -25 0 -7 41 -23 53 -20 4 1 7 -3 7 -8 0 -16 -42 -7 -75 14 -21 14 -46 19 -90 19 -57 -1 -85 8 -85 28 0 5 11 2 25 -7 33 -21 60 -12 45 15 -5 11 -10 27 -10 36 0 9 -7 23 -15 32 -14 14 -18 14 -34 -2 -11 -9 -21 -33 -24 -53 -3 -20 -15 -64 -27 -96 -17 -48 -21 -76 -18 -152 2 -53 -1 -90 -6 -87 -5 4 -7 -15 -3 -43 4 -31 3 -42 -3 -29 -7 16 -9 11 -9 -22 -1 -23 -5 -45 -11 -48 -5 -3 -10 -1 -10 5 0 6 -6 8 -12 4 -7 -4 -10 -4 -6 0 8 10 -29 71 -94 153 -49 62 -49 63 -31 87 10 14 22 26 26 26 5 0 29 16 53 36 64 53 55 102 -21 119 -16 4 -48 13 -70 22 -31 11 -48 12 -69 4 -15 -6 -41 -11 -57 -11 -50 0 -69 -16 -69 -59 l0 -38 -62 15 c-35 8 -65 16 -66 18 -9 7 44 64 59 64 20 0 49 36 49 62 0 18 -76 85 -92 80 -5 -1 -7 2 -3 7 10 17 -35 33 -75 26 -28 -5 -46 -2 -62 9 -37 26 -75 20 -114 -18z m111 11 c14 -11 15 -16 5 -22 -8 -5 -11 -4 -7 2 9 14 -11 21 -45 17 -16 -1 -28 2 -28 7 0 14 54 11 75 -4z m213 -146 c-7 -11 -17 -17 -22 -14 -6 4 -5 8 3 11 11 4 11 6 0 13 -10 6 -8 9 9 9 19 0 21 -2 10 -19z m-73 -51 c11 -17 -5 -11 -28 11 l-22 21 22 -11 c12 -6 25 -16 28 -21z m-290 -56 c15 -136 -9 -284 -74 -452 -16 -42 -35 -103 -42 -134 -6 -32 -16 -58 -20 -58 -13 0 0 55 42 175 22 61 39 119 39 130 0 12 5 26 12 33 7 7 8 12 4 12 -5 0 -3 7 4 15 15 18 24 201 10 210 -7 4 -7 13 0 26 7 12 7 19 1 19 -6 0 -8 7 -5 15 4 8 2 15 -4 15 -6 0 -13 -6 -15 -12 -3 -7 -6 -3 -6 9 -1 12 -5 24 -10 27 -13 8 -42 -4 -35 -15 3 -5 10 -7 15 -4 5 4 6 -2 2 -11 -5 -13 -8 -14 -11 -5 -4 11 -6 11 -14 0 -8 -11 -9 -10 -4 4 8 25 -13 21 -24 -5 -5 -13 -9 -18 -9 -11 -1 7 -8 10 -18 7 -27 -9 2 12 58 41 46 24 47 24 52 5 3 -11 11 -20 19 -20 10 0 10 2 -1 9 -17 11 -7 41 13 41 10 0 16 -18 21 -66z m715 31 c14 -16 10 -18 -14 -9 -9 3 -16 10 -16 15 0 14 16 11 30 -6z m-342 -51 c15 -4 21 -12 18 -21 -3 -8 -2 -11 3 -8 5 3 12 1 16 -5 3 -5 1 -11 -4 -11 -21 -3 -26 -4 -39 -13 -12 -7 -12 -4 -2 14 20 37 -20 53 -45 17 -13 -19 -13 -23 2 -39 8 -10 20 -15 24 -12 5 3 9 0 9 -5 0 -16 -16 -13 -30 4 -18 22 -33 18 -27 -7 6 -22 5 -22 -8 -4 -14 19 -15 19 -37 0 -13 -10 -18 -12 -11 -5 6 7 9 19 6 26 -3 10 2 12 18 8 17 -5 20 -3 14 7 -5 8 -4 11 3 6 11 -6 38 31 34 47 -2 9 24 9 56 1z m-568 -22 c-8 -3 -22 -10 -30 -16 -8 -6 -7 -1 4 11 10 13 23 20 29 16 7 -4 6 -8 -3 -11z m539 -18 c-15 -18 -22 -13 -13 10 3 9 10 13 16 10 5 -3 4 -12 -3 -20z m47 -69 c-1 -8 -4 -16 -7 -17 -2 -2 -3 -1 -2 1 1 2 -2 12 -8 22 -7 14 -6 17 5 13 8 -3 13 -12 12 -19z m289 -145 c-3 -4 2 -10 10 -14 8 -3 15 -11 15 -17 0 -8 -7 -6 -18 4 -18 17 -27 51 -10 41 5 -3 6 -9 3 -14z m292 -27 c-3 -10 -5 -2 -5 17 0 19 2 27 5 18 2 -10 2 -26 0 -35z m-1271 -50 c0 -16 4 -52 7 -80 7 -47 6 -53 -10 -52 -10 0 -13 3 -6 5 7 4 8 15 3 37 -17 64 -20 117 -7 117 7 0 12 -12 13 -27z m-69 -315 c-2 -13 -4 -5 -4 17 -1 22 1 32 4 23 2 -10 2 -28 0 -40z m1137 -207 c3 -4 0 -28 -7 -52 -10 -33 -18 -44 -32 -44 -16 0 -20 6 -18 30 4 55 13 75 33 75 10 0 21 -4 24 -9z m-354 -281 c-18 -11 -22 -7 -14 14 5 13 10 14 18 6 8 -8 7 -13 -4 -20z m-79 0 c10 0 19 5 21 12 3 8 6 7 10 -3 4 -11 -2 -16 -22 -17 -16 -1 -32 3 -35 8 -9 14 -35 -7 -35 -27 0 -8 -5 -13 -11 -11 -6 2 -10 7 -10 11 1 4 1 14 1 23 0 10 6 14 15 11 8 -4 17 -1 21 4 4 7 10 7 17 0 6 -6 19 -11 28 -11z m709 -6 c0 -8 6 -11 15 -8 8 4 15 2 15 -3 0 -16 -29 -11 -45 7 -13 15 -13 17 0 17 8 0 15 -6 15 -13z m56 -61 c-11 -11 -17 4 -9 23 7 18 8 18 11 1 2 -10 1 -21 -2 -24z m-862 -15 c-8 -12 10 -10 23 3 9 9 11 7 7 -8 -3 -12 -14 -19 -28 -19 -17 0 -22 5 -18 18 2 10 -1 18 -7 18 -7 0 -9 -4 -6 -10 3 -5 1 -10 -4 -10 -12 0 -15 23 -5 33 8 8 44 -15 38 -25z m449 -313 c25 -24 6 -75 -27 -75 -28 0 -46 18 -46 45 0 41 44 60 73 30z m171 9 c10 -4 16 -18 16 -39 0 -29 -4 -34 -31 -40 -23 -5 -34 -3 -44 12 -20 26 -18 40 7 57 25 18 30 19 52 10z"/>
<path d="M996 1815 c-5 -13 0 -25 18 -39 13 -12 29 -30 35 -41 10 -19 10 -19 11 -1 0 12 5 16 15 12 19 -7 19 -1 -2 23 -9 11 -20 18 -25 15 -4 -3 -13 -2 -19 2 -8 4 -7 9 2 15 11 7 10 9 -3 9 -9 0 -18 5 -20 12 -3 7 -7 4 -12 -7z"/>
<path d="M958 1727 c-6 -12 -12 -50 -12 -84 -1 -35 -4 -63 -7 -63 -3 0 -12 19 -19 43 -7 23 -17 45 -24 49 -18 12 -36 9 -36 -7 0 -8 -3 -15 -7 -15 -16 0 -12 -86 4 -135 14 -39 17 -78 15 -175 -1 -69 -6 -147 -11 -175 -7 -39 -9 -12 -9 115 1 163 -2 199 -17 233 -10 24 -20 22 -58 -18 -32 -33 -34 -38 -31 -97 4 -102 14 -149 47 -217 56 -113 127 -161 215 -145 94 17 104 34 96 169 -9 163 -8 177 9 215 23 51 30 74 28 84 -1 4 5 13 13 20 9 6 14 20 11 31 -6 31 -7 32 -13 7 -4 -13 -11 -22 -17 -20 -5 2 -8 8 -7 13 10 29 9 93 -3 121 -10 23 -19 31 -36 30 -20 -1 -24 -7 -26 -36 -1 -19 -6 -48 -12 -65 -9 -29 -9 -29 -11 15 -2 67 -9 92 -28 107 -10 9 -11 12 -2 7 8 -4 12 -3 7 1 -16 19 -47 14 -59 -8z"/>
<path d="M920 876 c14 -16 24 -37 22 -48 -2 -11 1 -18 6 -14 19 12 -5 62 -38 81 -8 4 -4 -4 10 -19z"/>
<path d="M850 871 c0 -7 -6 -11 -14 -8 -19 7 -42 -18 -26 -28 6 -4 14 -4 17 -1 4 3 1 6 -6 6 -7 0 -10 4 -6 10 3 5 12 7 19 4 15 -6 32 13 22 23 -3 4 -6 1 -6 -6z"/>
<path d="M750 797 c0 -18 -2 -19 -10 -7 -6 9 -10 10 -10 3 0 -21 14 -22 37 -3 22 17 22 18 3 23 -15 4 -20 0 -20 -16z"/>
</g>
<g id="layer105" fill="#3e5c9e" stroke="none">
<path d="M553 2155 c-32 -31 -34 -35 -15 -35 15 0 22 6 22 20 0 36 66 53 105 27 26 -18 65 -28 65 -16 0 20 53 8 80 -18 15 -16 36 -33 46 -39 10 -6 22 -18 28 -27 14 -22 -11 -67 -37 -64 -10 1 -24 -7 -31 -18 -6 -11 -16 -24 -22 -30 -7 -5 -15 -21 -19 -33 -6 -21 -4 -23 13 -18 18 6 86 -5 125 -20 13 -5 17 0 17 20 0 23 3 25 24 16 29 -11 36 -5 36 32 0 19 5 28 16 28 12 0 15 -6 11 -22 -12 -44 59 -88 90 -57 9 9 8 20 -4 43 -9 17 -21 34 -27 38 -18 12 6 10 76 -8 72 -18 87 -28 83 -52 -2 -9 -4 -20 -4 -24 -2 -14 -28 -8 -42 9 -8 9 -9 14 -4 11 6 -4 17 -3 24 1 9 6 5 10 -13 13 -17 4 -26 1 -26 -8 0 -7 -10 -20 -22 -29 -20 -13 -21 -17 -8 -25 8 -5 24 -10 35 -10 20 -1 20 -1 1 -13 -23 -14 -76 -69 -76 -78 0 -4 16 -24 35 -45 19 -22 35 -45 35 -51 0 -7 4 -13 9 -13 5 0 16 -12 26 -26 14 -21 14 -28 3 -42 -9 -11 -9 -13 -1 -9 30 18 85 -79 79 -139 -3 -22 -5 -39 -6 -39 -3 0 -7 -54 -14 -173 -4 -83 -3 -103 8 -99 7 3 35 1 62 -5 27 -5 71 -11 98 -13 26 -2 51 -7 55 -11 3 -4 -60 -4 -140 0 l-147 6 -6 -25 c-3 -13 -9 -51 -13 -84 -6 -60 -5 -61 23 -72 47 -19 203 -22 229 -5 20 13 75 129 75 159 0 13 108 12 122 -2 4 -3 -4 -29 -17 -55 -14 -27 -25 -54 -25 -59 0 -5 -9 -20 -20 -34 -27 -34 -25 -61 4 -73 29 -10 31 -15 41 -59 4 -20 3 -31 -2 -28 -5 4 -10 0 -10 -8 0 -8 3 -15 7 -15 3 0 7 -14 8 -30 1 -17 -3 -30 -8 -30 -7 0 -9 -13 -6 -32 6 -40 -12 -108 -33 -126 -10 -8 -11 -12 -3 -12 10 0 10 -3 0 -14 -7 -8 -17 -11 -23 -8 -5 2 -5 -1 2 -8 7 -8 9 -20 4 -29 -4 -9 -7 -28 -6 -44 1 -15 -2 -27 -7 -27 -4 0 -8 -9 -8 -21 0 -13 -4 -18 -12 -13 -8 5 -8 1 1 -10 13 -15 13 -19 1 -26 -8 -5 -11 -12 -7 -16 4 -4 3 -12 -3 -19 -5 -6 -11 -27 -14 -46 -6 -45 -23 -89 -35 -89 -6 0 -8 -6 -5 -13 3 -10 -7 -13 -41 -12 -55 2 -62 8 -37 31 10 11 27 31 37 47 16 25 16 29 1 46 -23 25 -20 38 4 16 11 -10 20 -16 20 -12 0 3 3 12 6 21 4 11 0 16 -12 17 -11 0 -14 3 -6 6 15 6 16 39 1 48 -7 5 -6 12 4 23 8 10 17 24 21 32 4 8 0 6 -8 -4 -9 -11 -16 -16 -16 -12 0 5 14 24 31 43 16 19 28 40 26 46 -1 5 16 30 39 54 23 23 40 43 37 43 -3 0 -1 6 4 13 14 17 1 52 -19 53 -46 3 -49 4 -42 17 6 10 4 10 -7 0 -20 -19 -28 -16 -44 19 -12 28 -13 29 -9 7 3 -15 1 -30 -5 -33 -6 -4 -9 -1 -6 6 3 8 -1 22 -9 33 -14 19 -15 19 -9 -5 3 -14 2 -22 -2 -18 -5 4 -15 2 -24 -4 -13 -10 -14 -10 -3 2 20 24 16 43 -8 30 -11 -6 -18 -15 -15 -20 7 -12 -33 -4 -49 9 -9 8 -12 5 -11 -10 1 -12 13 -28 28 -37 50 -31 44 -89 -13 -112 -72 -30 -145 42 -98 96 23 25 14 58 -13 51 -11 -3 -22 -1 -25 4 -3 5 -14 9 -24 9 -10 0 -21 6 -24 12 -5 10 -7 10 -12 1 -3 -7 -12 -9 -20 -6 -7 3 -11 10 -7 17 4 6 -1 5 -10 -3 -9 -7 -17 -10 -17 -6 0 4 -6 2 -14 -4 -7 -6 -21 -9 -30 -5 -10 4 -16 1 -16 -7 0 -12 -2 -12 -9 0 -7 11 -10 9 -16 -8 -3 -11 -11 -21 -16 -21 -6 0 -7 6 -2 12 11 19 13 39 2 32 -5 -3 -7 -9 -4 -14 3 -5 -1 -12 -9 -17 -19 -10 -7 -74 18 -98 19 -19 18 -12 20 -195 1 -125 4 -149 21 -178 10 -17 25 -32 31 -32 18 0 60 -37 51 -46 -4 -4 -21 0 -37 10 -17 9 -30 14 -30 10 0 -3 -6 -1 -13 5 -8 6 -17 7 -21 3 -5 -4 -6 2 -4 13 2 12 -2 19 -9 18 -7 -2 -10 4 -7 12 4 8 1 15 -6 15 -7 0 -10 7 -6 16 3 8 2 12 -4 9 -6 -3 -10 -2 -10 4 0 5 6 11 13 14 9 3 9 7 1 18 -6 8 -10 25 -9 39 1 14 -2 31 -7 38 -7 8 -6 17 2 27 10 13 11 18 1 28 -10 9 -11 8 -6 -4 4 -10 2 -20 -4 -24 -18 -11 -13 37 7 59 17 21 17 21 -6 2 -12 -11 -22 -29 -23 -40 0 -21 -1 -21 -8 -1 -5 11 -4 23 1 26 5 3 6 14 2 25 -4 14 -3 15 4 5 8 -11 11 -11 18 0 13 21 14 39 2 39 -6 0 -8 -7 -4 -15 3 -8 1 -15 -3 -15 -5 0 -11 6 -14 14 -7 17 16 39 28 28 5 -4 5 -1 0 6 -5 10 -10 11 -18 3 -17 -17 -27 -13 -20 7 5 14 3 13 -11 -3 -17 -20 -17 -20 -11 5 6 24 5 24 -10 -3 -9 -15 -20 -25 -25 -22 -5 3 -12 0 -16 -6 -4 -8 -3 -9 4 -5 7 4 12 6 12 4 0 -2 4 -18 9 -36 11 -37 5 -43 -9 -9 -7 18 -9 18 -9 4 -1 -10 -6 -15 -12 -12 -6 4 -8 13 -5 20 3 9 -2 12 -15 10 -11 -2 -17 0 -14 6 4 5 0 9 -7 9 -9 0 -9 3 2 10 13 8 12 10 -2 10 -10 0 -19 5 -19 10 -1 6 -2 14 -3 19 0 5 -4 12 -8 16 -4 4 -4 13 -1 21 3 8 0 14 -5 14 -6 0 -9 9 -7 20 2 11 1 20 -3 20 -14 0 -32 80 -32 137 0 45 7 70 30 112 17 30 30 59 30 65 0 6 -16 -20 -36 -58 -35 -66 -36 -73 -32 -145 4 -54 20 -121 56 -231 27 -85 53 -170 57 -188 4 -18 10 -30 15 -27 4 3 6 -3 3 -13 -7 -28 33 -132 64 -164 31 -32 59 -35 124 -13 41 14 48 14 75 0 45 -23 138 -19 208 10 34 14 64 21 70 16 23 -17 63 -20 83 -6 27 19 36 42 82 226 22 86 50 181 61 212 31 81 34 275 6 306 -11 11 -25 21 -33 21 -20 0 -17 7 33 106 58 112 56 124 -23 124 -32 0 -64 4 -72 9 -12 8 -14 64 -15 333 0 280 2 327 16 354 20 36 80 110 90 109 4 0 23 16 42 34 59 57 45 120 -29 136 -16 4 -45 14 -64 22 -33 15 -44 14 -126 -13 -5 -1 7 -2 28 -1 20 0 37 5 37 9 0 12 32 9 60 -5 14 -8 41 -17 59 -20 60 -12 81 -59 23 -53 -35 4 -85 -40 -62 -55 8 -5 25 -9 38 -9 13 0 20 -4 17 -10 -11 -18 -66 -11 -84 11 -13 17 -28 21 -76 21 -74 0 -95 5 -95 25 0 13 3 13 26 -2 34 -22 48 -9 33 32 -10 31 -21 35 -49 18 -13 -8 -13 -7 0 11 8 10 20 22 25 26 6 5 6 8 -1 8 -19 0 -41 -34 -47 -70 -3 -19 -15 -62 -27 -95 -18 -49 -21 -76 -18 -156 1 -54 -1 -92 -5 -86 -5 7 -6 -10 -3 -38 3 -33 2 -43 -4 -30 -7 16 -9 11 -9 -22 -1 -23 -5 -44 -9 -47 -4 -3 -23 19 -42 47 -18 29 -55 80 -82 114 -49 62 -49 63 -31 87 10 14 22 26 26 26 5 0 29 16 53 36 64 53 55 102 -21 119 -16 4 -48 13 -70 22 -31 11 -48 12 -69 4 -15 -6 -41 -11 -57 -11 -50 0 -69 -16 -69 -59 l0 -38 -62 15 c-35 8 -65 16 -66 18 -9 7 44 64 59 64 20 0 49 36 49 61 0 10 -28 41 -62 69 -59 49 -64 51 -105 45 -31 -4 -49 -2 -65 9 -37 26 -75 20 -115 -19z m950 -335 c-9 -11 -19 -17 -21 -15 -6 6 18 35 29 35 5 0 1 -9 -8 -20z m-13 -190 c0 -44 -16 -44 -17 0 0 22 3 37 8 34 5 -3 9 -18 9 -34z m-206 -589 c3 -4 0 -28 -7 -52 -10 -33 -18 -44 -32 -44 -16 0 -20 6 -18 30 4 55 13 75 33 75 10 0 21 -4 24 -9z m-379 -569 c3 -9 1 -20 -5 -26 -7 -7 -10 -4 -10 10 0 14 -2 16 -9 5 -6 -9 -11 -10 -15 -2 -4 6 -5 15 -2 19 8 14 35 10 41 -6z m299 -108 c31 -31 5 -77 -41 -72 -24 3 -28 8 -31 37 -5 49 38 70 72 35z m185 -6 c15 -40 -5 -68 -47 -68 -17 0 -27 9 -37 33 -12 30 -12 33 8 44 35 20 67 16 76 -9z"/>
<path d="M1127 894 c-3 -5 -7 -27 -8 -49 -4 -38 -3 -40 26 -40 17 -1 52 -11 78 -23 47 -21 51 -22 104 -6 34 10 70 14 94 10 37 -6 39 -5 58 33 16 30 18 41 8 49 -7 5 -57 12 -112 16 -55 4 -132 9 -171 13 -39 3 -74 2 -77 -3z"/>
</g>
<g id="layer106" fill="#ab7a1f" stroke="none">
<path d="M553 2155 c-32 -31 -34 -35 -15 -35 15 0 22 6 22 20 0 36 66 53 105 27 26 -18 65 -28 65 -16 0 20 53 8 80 -18 15 -16 36 -33 46 -39 10 -6 22 -18 28 -27 14 -22 -11 -67 -37 -64 -10 1 -24 -7 -31 -18 -6 -11 -16 -24 -22 -30 -7 -5 -15 -21 -19 -33 -6 -21 -4 -23 13 -18 18 6 86 -5 125 -20 13 -5 17 0 17 20 0 23 3 25 24 16 29 -11 36 -5 36 32 0 19 5 28 16 28 12 0 15 -6 11 -22 -12 -44 59 -88 90 -57 9 9 8 20 -4 43 -9 17 -21 34 -27 38 -18 12 6 10 76 -8 72 -18 87 -28 83 -52 -2 -9 -4 -20 -4 -24 -2 -14 -28 -8 -42 9 -8 9 -9 14 -4 11 6 -4 17 -3 24 1 9 6 5 10 -13 13 -17 4 -26 1 -26 -8 0 -7 -10 -20 -22 -29 -20 -13 -21 -17 -8 -25 8 -5 24 -10 35 -10 20 -1 20 -1 1 -13 -23 -14 -76 -69 -76 -78 0 -4 16 -24 35 -45 19 -22 35 -45 35 -51 0 -7 4 -13 9 -13 5 0 16 -12 26 -26 14 -21 14 -28 3 -42 -9 -11 -9 -13 -1 -9 30 18 85 -79 79 -139 -3 -22 -5 -39 -6 -39 -3 0 -7 -54 -14 -173 -4 -83 -3 -103 8 -99 7 3 35 1 62 -5 27 -5 71 -11 98 -13 26 -2 51 -7 55 -11 3 -4 -60 -4 -140 0 l-147 6 -11 -63 c-17 -100 -16 -105 27 -116 64 -18 201 -16 219 2 26 25 83 171 70 179 -7 4 -11 111 -11 330 0 280 2 327 16 354 20 36 80 110 90 109 4 0 23 16 42 34 59 57 45 120 -29 136 -16 4 -45 14 -64 22 -33 15 -44 14 -126 -13 -5 -1 7 -2 28 -1 20 0 37 5 37 9 0 12 32 9 60 -5 14 -8 41 -17 59 -20 60 -12 81 -59 23 -53 -35 4 -85 -40 -62 -55 8 -5 25 -9 38 -9 13 0 20 -4 17 -10 -11 -18 -66 -11 -84 11 -13 17 -28 21 -76 21 -74 0 -95 5 -95 25 0 13 3 13 26 -2 34 -22 48 -9 33 32 -10 31 -21 35 -49 18 -13 -8 -13 -7 0 11 8 10 20 22 25 26 6 5 6 8 -1 8 -19 0 -41 -34 -47 -70 -3 -19 -15 -62 -27 -95 -18 -49 -21 -76 -18 -156 1 -54 -1 -92 -5 -86 -5 7 -6 -10 -3 -38 3 -33 2 -43 -4 -30 -7 16 -9 11 -9 -22 -1 -23 -5 -44 -9 -47 -4 -3 -23 19 -42 47 -18 29 -55 80 -82 114 -49 62 -49 63 -31 87 10 14 22 26 26 26 5 0 29 16 53 36 64 53 55 102 -21 119 -16 4 -48 13 -70 22 -31 11 -48 12 -69 4 -15 -6 -41 -11 -57 -11 -50 0 -69 -16 -69 -59 l0 -38 -62 15 c-35 8 -65 16 -66 18 -9 7 44 64 59 64 20 0 49 36 49 61 0 10 -28 41 -62 69 -59 49 -64 51 -105 45 -31 -4 -49 -2 -65 9 -37 26 -75 20 -115 -19z m950 -335 c-9 -11 -19 -17 -21 -15 -6 6 18 35 29 35 5 0 1 -9 -8 -20z m-13 -190 c0 -44 -16 -44 -17 0 0 22 3 37 8 34 5 -3 9 -18 9 -34z m-200 -599 c0 -9 -5 -33 -11 -53 -8 -30 -15 -38 -33 -38 -15 0 -26 7 -29 20 -6 24 15 89 34 100 16 11 39 -6 39 -29z"/>
<path d="M595 2140 c-6 -9 -4 -11 5 -5 8 5 11 4 6 -3 -4 -6 -13 -9 -20 -6 -7 3 -18 -2 -25 -10 -28 -34 35 -85 82 -67 55 21 64 76 12 76 -17 0 -35 6 -41 14 -9 11 -12 12 -19 1z"/>
<path d="M467 2112 c-24 -27 -21 -65 8 -90 14 -12 25 -18 25 -14 0 4 14 13 31 19 l30 12 -22 30 c-13 17 -25 27 -28 22 -3 -4 -15 -5 -25 -1 -18 6 -18 7 5 23 16 12 19 17 8 17 -9 0 -23 -8 -32 -18z"/>
<path d="M715 2094 c-11 -28 -12 -40 -4 -50 12 -15 69 -16 69 -1 0 4 6 5 13 1 6 -4 3 3 -8 16 -11 13 -14 20 -7 16 8 -5 12 0 12 14 0 14 -6 21 -17 19 -32 -3 -44 1 -38 11 3 6 4 10 1 10 -3 0 -13 -16 -21 -36z"/>
<path d="M1463 2049 c-16 -16 4 -56 31 -63 33 -9 41 -7 64 14 18 17 20 24 10 40 -8 13 -15 16 -19 8 -6 -9 -12 -8 -25 3 -16 12 -17 12 -9 -1 7 -12 6 -13 -6 -3 -12 10 -18 10 -29 0 -10 -9 -11 -9 -6 1 9 15 4 16 -11 1z"/>
<path d="M625 2032 c-27 -2 -54 -7 -59 -13 -6 -5 -17 -9 -26 -9 -27 0 -193 -87 -236 -124 -55 -47 -95 -132 -102 -216 -4 -54 -10 -71 -35 -99 -16 -19 -46 -69 -65 -110 -61 -128 -47 -235 42 -320 20 -19 39 -32 42 -28 4 4 -1 26 -10 50 -25 67 -21 161 9 214 14 23 29 43 33 43 4 0 24 -34 45 -76 42 -84 116 -170 164 -190 19 -8 68 -14 117 -14 82 0 84 -1 113 -33 16 -18 46 -63 68 -100 37 -62 42 -67 65 -60 44 13 110 7 139 -14 33 -25 61 -79 61 -120 0 -18 2 -33 4 -33 21 0 66 26 67 38 1 10 3 51 4 92 1 41 4 82 6 90 3 12 -11 15 -77 16 -89 2 -115 11 -157 56 -34 37 -95 156 -103 200 -9 59 -22 103 -24 88 -2 -8 -4 -28 -5 -45 -8 -115 -28 -166 -64 -164 -11 0 -12 2 -3 6 32 13 41 59 47 264 3 112 6 248 7 302 0 53 4 95 8 92 5 -3 7 13 4 35 -3 24 -1 40 6 40 5 0 10 4 10 10 0 5 -8 6 -17 3 -16 -6 -16 -5 -5 10 8 9 19 15 25 14 7 -1 12 5 12 13 0 8 5 22 10 30 7 13 6 13 -7 2 -10 -8 -14 -20 -11 -29 4 -10 2 -14 -4 -10 -6 4 -10 18 -10 32 0 13 3 22 8 19 21 -13 5 13 -19 31 -20 15 -39 19 -77 17z m-109 -109 c18 -143 5 -230 -67 -444 -32 -97 -59 -186 -59 -198 0 -12 -4 -21 -10 -21 -5 0 -10 6 -10 13 0 16 63 240 79 281 9 21 8 32 0 42 -10 12 -8 13 6 7 15 -5 17 -3 12 12 -4 9 -2 23 4 31 8 9 7 18 -1 31 -11 17 -11 17 -6 0 8 -25 -4 -44 -15 -26 -7 11 -9 11 -9 -2 0 -9 -8 -23 -17 -30 -16 -13 -17 -12 -4 4 13 17 12 18 -11 15 -14 -2 -33 -10 -43 -18 -13 -11 -18 -11 -25 -1 -4 8 -13 10 -20 6 -8 -5 -11 -3 -8 6 3 8 10 14 17 14 6 0 16 7 22 15 8 12 9 10 4 -7 -9 -32 13 -29 25 3 6 14 20 28 31 31 15 4 17 8 8 14 -8 5 -18 0 -27 -12 -9 -13 -21 -18 -37 -15 -19 4 -23 1 -19 -12 5 -14 2 -13 -10 2 -12 15 -16 16 -17 5 0 -8 -4 -6 -9 6 -6 13 -8 2 -5 -35 1 -30 1 -49 -2 -42 -3 6 -8 10 -12 8 -4 -3 -7 9 -6 26 0 22 -5 32 -17 34 -10 1 -21 -2 -24 -7 -3 -5 0 -8 7 -7 7 2 14 -5 17 -14 2 -12 -3 -16 -18 -15 -18 1 -21 6 -16 28 3 14 0 32 -7 38 -9 10 -8 15 7 23 14 8 15 12 6 18 -10 6 -9 13 4 31 9 13 16 30 16 37 0 20 59 92 76 92 8 0 14 4 14 9 0 11 135 81 156 81 8 0 15 -21 20 -57z m-295 -370 c2 -38 5 -70 9 -88 5 -21 -1 -35 -14 -35 -10 0 -13 7 -11 20 2 11 1 39 -4 63 -5 32 -11 41 -25 39 -16 -3 -16 -2 1 17 28 31 43 25 44 -16z m-71 -289 c0 -48 -16 -43 -19 7 -1 26 2 38 9 34 5 -3 10 -22 10 -41z"/>
<path d="M944 1891 c3 -4 20 -14 38 -22 18 -7 47 -23 64 -36 17 -13 35 -23 40 -23 5 0 3 4 -5 9 -12 8 -12 12 -2 25 7 9 18 13 24 9 6 -4 7 -1 2 6 -5 9 -10 10 -18 2 -14 -14 -40 -14 -32 0 4 6 -2 13 -14 16 -12 3 -21 9 -21 14 0 5 -18 9 -41 9 -22 0 -38 -4 -35 -9z"/>
<path d="M950 1675 c-2 -16 -3 -45 -2 -63 0 -26 -3 -32 -16 -30 -9 2 -16 11 -16 21 1 9 -3 14 -9 10 -6 -4 -8 0 -4 10 3 10 2 17 -2 17 -5 0 -12 -7 -15 -16 -5 -13 -9 -14 -21 -4 -12 10 -15 9 -16 -9 -1 -11 -2 -27 -3 -33 -2 -7 4 -29 11 -48 14 -34 26 -98 25 -135 0 -45 -22 -269 -27 -273 -5 -5 -10 142 -5 163 1 9 0 101 -2 130 -1 8 -5 12 -9 9 -5 -2 -6 -11 -2 -19 3 -8 0 -15 -6 -15 -6 0 -11 4 -11 10 0 5 -7 7 -16 3 -8 -3 -13 -12 -10 -20 3 -8 1 -11 -4 -8 -6 3 -10 12 -10 18 0 7 -7 20 -15 31 -13 18 -14 18 -12 -2 0 -11 5 -18 9 -16 4 3 8 1 8 -5 0 -5 -4 -12 -9 -15 -7 -5 -8 -101 -1 -101 1 0 3 -12 5 -26 5 -41 60 -142 96 -177 63 -61 163 -64 230 -6 17 15 17 33 4 174 -11 116 -11 180 -1 180 4 0 3 7 -4 15 -11 13 -10 14 2 10 8 -3 21 1 28 10 12 15 8 29 -11 31 -5 1 -12 2 -16 3 -4 0 1 7 12 14 25 19 31 129 7 119 -11 -4 -14 -1 -9 11 4 12 2 14 -10 10 -12 -5 -14 -3 -8 7 5 8 4 11 -2 7 -5 -3 -15 -24 -23 -46 -15 -47 -31 -54 -29 -13 3 45 -1 72 -8 71 -20 -3 -33 2 -33 14 0 7 -8 13 -18 13 -13 0 -19 -9 -22 -31z"/>
<path d="M745 1570 c-4 -6 -11 -7 -17 -4 -5 4 -4 -4 2 -17 17 -32 17 -32 24 -14 3 9 2 13 -4 10 -14 -9 -12 9 2 23 7 7 9 12 6 12 -4 0 -10 -5 -13 -10z"/>
<path d="M810 1440 c0 -7 -7 -10 -14 -7 -10 4 -13 1 -9 -9 4 -12 8 -12 22 -2 9 7 17 13 19 14 2 1 -1 5 -7 9 -6 3 -11 1 -11 -5z"/>
<path d="M1132 1384 c-7 -14 -8 -23 -3 -20 5 3 12 -6 16 -21 4 -19 9 -23 14 -14 6 10 10 10 16 2 4 -7 2 -18 -4 -25 -6 -7 -10 -15 -8 -17 1 -3 -5 3 -14 13 -16 17 -17 17 -22 -1 -2 -11 0 -24 6 -30 8 -8 7 -11 -2 -11 -7 0 -9 -5 -6 -10 4 -6 9 -32 12 -58 2 -26 6 -49 8 -51 2 -1 21 -4 43 -5 48 -2 51 16 8 55 -28 25 -29 28 -9 24 13 -2 25 1 28 6 4 5 11 6 17 3 5 -4 4 4 -2 17 -18 35 -23 38 -16 9 6 -21 5 -23 -6 -10 -19 22 -51 23 -43 2 5 -13 4 -14 -6 -5 -10 10 -9 15 1 27 7 9 16 13 21 11 4 -3 16 9 25 27 14 27 15 31 2 20 -13 -10 -17 -10 -21 2 -3 7 0 20 6 27 10 11 9 11 -5 0 -16 -12 -18 -11 -19 5 0 18 -1 18 -9 -1 l-9 -20 -2 20 c-1 11 -2 28 -1 38 2 24 -3 21 -16 -9z"/>
<path d="M1578 1093 c32 -3 55 -9 58 -17 3 -8 -15 -53 -41 -101 -45 -86 -50 -115 -22 -115 8 0 19 -6 25 -12 14 -18 27 -82 15 -75 -5 4 -10 0 -10 -8 0 -8 3 -15 7 -15 3 0 7 -13 8 -30 1 -16 -3 -30 -8 -30 -7 0 -9 -13 -6 -32 6 -40 -12 -108 -33 -125 -10 -9 -11 -13 -3 -13 10 0 10 -3 0 -14 -7 -8 -17 -11 -23 -8 -5 2 -5 -1 2 -8 7 -8 9 -20 4 -29 -4 -9 -7 -28 -6 -43 1 -16 -2 -28 -7 -28 -4 0 -8 -9 -8 -21 0 -13 -4 -18 -12 -13 -8 5 -8 1 1 -10 13 -15 13 -19 1 -26 -8 -5 -11 -12 -7 -16 4 -4 3 -12 -3 -19 -5 -6 -11 -27 -14 -46 -6 -45 -23 -89 -35 -89 -6 0 -8 -6 -5 -13 3 -10 -7 -13 -41 -12 -55 2 -62 8 -37 31 10 11 27 31 37 47 16 25 16 29 1 46 -22 24 -20 38 3 17 17 -15 19 -15 25 -1 9 23 8 25 -11 26 -11 0 -13 3 -5 6 15 6 16 39 1 48 -7 5 -6 12 4 23 8 10 17 24 21 32 4 8 0 6 -8 -4 -9 -11 -16 -16 -16 -12 0 5 14 24 31 43 16 19 28 40 26 46 -1 5 16 30 39 54 23 23 40 43 37 43 -3 0 -1 6 4 13 14 17 1 52 -19 53 -46 3 -49 4 -42 17 6 10 4 10 -7 0 -20 -19 -28 -16 -44 20 -12 27 -13 28 -9 6 3 -15 1 -30 -5 -33 -6 -4 -9 -1 -6 6 3 8 -1 22 -9 33 -14 19 -15 19 -9 -5 3 -14 2 -22 -2 -18 -5 4 -15 2 -24 -4 -13 -10 -14 -10 -3 2 20 24 16 43 -8 30 -11 -6 -18 -15 -15 -20 7 -12 -33 -4 -49 9 -9 8 -12 5 -11 -10 1 -12 13 -28 28 -37 50 -31 44 -89 -13 -112 -72 -30 -145 42 -98 96 23 25 14 58 -13 51 -11 -3 -22 -1 -25 4 -3 5 -14 9 -24 9 -10 0 -21 6 -24 13 -5 9 -7 9 -12 0 -3 -7 -12 -9 -20 -6 -7 3 -11 10 -7 17 4 6 -1 5 -10 -3 -9 -7 -17 -10 -17 -6 0 4 -6 2 -14 -4 -7 -6 -21 -9 -30 -5 -10 4 -16 1 -16 -7 0 -12 -2 -12 -9 0 -7 11 -10 9 -16 -8 -3 -11 -11 -21 -16 -21 -6 0 -7 6 -2 13 11 18 13 38 2 31 -5 -3 -7 -9 -4 -14 3 -5 -1 -12 -9 -17 -19 -10 -7 -74 18 -98 19 -19 18 -12 20 -195 1 -125 4 -149 21 -177 10 -18 25 -33 31 -33 18 0 60 -37 51 -46 -4 -4 -21 0 -37 10 -17 9 -30 14 -30 10 0 -3 -6 -1 -13 5 -8 6 -17 7 -21 3 -5 -4 -6 2 -4 13 2 12 -2 19 -9 18 -7 -2 -10 4 -7 12 4 8 1 15 -6 15 -7 0 -10 7 -6 16 3 8 2 12 -4 9 -6 -3 -10 -2 -10 4 0 5 6 11 13 14 9 3 9 7 1 18 -6 8 -10 25 -9 39 1 14 -2 31 -7 38 -7 8 -6 17 2 27 10 13 11 18 1 28 -10 9 -11 8 -6 -4 4 -10 2 -20 -4 -24 -18 -11 -13 37 7 59 17 21 17 21 -5 2 -13 -11 -23 -29 -24 -40 0 -21 -1 -21 -8 -1 -5 11 -4 23 1 26 5 3 6 14 2 25 -4 14 -3 15 4 5 8 -11 11 -11 18 0 13 21 14 39 2 39 -6 0 -8 -7 -4 -15 3 -8 1 -15 -3 -15 -5 0 -11 6 -14 14 -7 17 16 39 28 28 5 -4 5 -1 0 6 -5 10 -10 11 -18 3 -17 -17 -27 -13 -20 7 5 14 3 13 -11 -3 -17 -20 -17 -20 -11 5 6 24 5 24 -10 -3 -9 -15 -20 -25 -25 -22 -5 3 -12 0 -16 -6 -4 -8 -3 -9 4 -5 7 4 12 6 12 4 0 -2 4 -18 9 -36 11 -37 5 -43 -9 -10 -7 19 -9 19 -9 5 -1 -10 -6 -15 -12 -12 -6 4 -8 13 -5 20 3 9 -2 12 -15 10 -11 -2 -17 0 -14 6 4 5 0 9 -7 9 -9 0 -9 3 2 10 13 8 12 10 -2 10 -10 0 -19 5 -19 10 -1 6 -2 14 -3 19 0 5 -4 12 -8 16 -4 4 -4 13 -1 21 3 8 0 14 -5 14 -6 0 -9 9 -7 20 2 11 1 20 -3 20 -14 0 -32 80 -32 137 0 45 7 70 30 112 17 30 30 59 30 65 0 6 -16 -20 -36 -58 -35 -66 -36 -73 -32 -145 4 -54 20 -121 56 -231 27 -85 53 -170 57 -188 4 -18 10 -30 15 -27 4 3 6 -3 3 -13 -7 -28 33 -132 64 -164 31 -32 59 -35 124 -13 41 14 48 14 75 0 45 -23 138 -19 208 10 34 14 64 21 70 16 23 -17 63 -20 83 -6 27 19 36 42 82 226 22 86 50 181 61 212 31 81 34 275 6 306 -11 11 -25 21 -33 21 -20 0 -17 7 33 106 59 112 56 125 -23 122 l-58 -2 53 -3z m-673 -621 c3 -9 1 -20 -5 -26 -7 -7 -10 -4 -10 10 0 14 -2 16 -9 5 -6 -9 -11 -10 -15 -2 -4 6 -5 15 -2 19 8 14 35 10 41 -6z m299 -108 c31 -31 5 -77 -41 -72 -24 3 -28 8 -31 37 -5 49 38 70 72 35z m185 -6 c15 -40 -5 -68 -47 -68 -17 0 -27 9 -37 33 -12 30 -12 33 8 44 35 20 67 16 76 -9z"/>
<path d="M1169 701 c7 -5 17 -15 22 -22 6 -10 8 -8 7 7 -1 12 -10 21 -22 22 -15 1 -17 -1 -7 -7z"/>
<path d="M1334 692 c2 -21 21 -19 23 3 l3 20 -9 -20 c-6 -16 -9 -17 -13 -5 -3 8 -4 9 -4 2z"/>
<path d="M1470 674 c0 -14 3 -15 18 -3 9 7 19 15 21 16 2 2 -5 3 -17 3 -14 0 -22 -6 -22 -16z"/>
<path d="M883 579 c9 -6 14 -16 11 -22 -4 -7 -3 -8 1 -4 17 15 12 33 -9 34 -19 2 -19 1 -3 -8z"/>
<path d="M822 513 c5 -7 14 -10 19 -7 16 10 9 23 -10 21 -15 -1 -17 -4 -9 -14z"/>
</g>
<g id="layer107" fill="#6c6b67" stroke="none">
<path d="M553 2155 c-20 -19 -33 -35 -29 -35 5 0 21 14 36 30 32 34 72 39 108 14 16 -11 34 -13 67 -9 40 7 47 4 74 -21 16 -16 37 -34 47 -40 10 -6 22 -18 28 -26 14 -23 -8 -68 -33 -68 -11 0 -32 -18 -50 -42 l-32 -43 58 -11 c32 -5 68 -14 81 -18 21 -7 22 -5 22 37 0 48 9 57 60 57 16 0 41 5 56 11 21 8 38 7 69 -4 22 -9 53 -18 70 -22 66 -15 72 -48 18 -99 -21 -20 -43 -36 -49 -36 -9 0 -54 -52 -54 -63 0 -2 14 -20 30 -38 38 -42 150 -208 150 -222 0 -34 10 11 20 88 7 50 15 95 19 100 4 6 7 34 6 63 0 30 4 52 10 52 6 0 7 3 0 8 -20 14 -15 32 10 32 15 0 25 -6 25 -14 0 -7 8 -20 18 -27 14 -11 15 -11 5 0 -6 7 -9 20 -6 27 6 17 -23 48 -32 34 -8 -13 -35 -13 -35 1 0 5 5 7 11 3 6 -3 15 -1 19 6 4 7 16 9 29 5 12 -3 19 -11 16 -16 -4 -5 -1 -9 5 -9 6 0 8 -5 4 -12 -5 -9 -2 -9 9 1 9 7 17 20 17 28 0 8 4 12 9 9 11 -7 73 49 64 57 -3 4 0 7 8 8 8 0 1 5 -15 9 -16 5 -42 6 -58 3 -16 -3 -39 0 -51 6 -19 10 -22 19 -19 52 3 26 11 44 25 54 12 8 17 15 11 15 -19 0 -42 -34 -47 -70 -3 -19 -14 -60 -26 -90 -14 -38 -21 -80 -21 -135 -1 -80 -20 -239 -30 -249 -3 -3 -21 18 -40 47 -18 29 -55 80 -82 114 -49 62 -49 63 -31 87 10 14 22 26 26 26 5 0 29 16 53 36 64 53 55 102 -21 119 -16 4 -48 13 -70 22 -31 11 -48 12 -69 4 -15 -6 -41 -11 -57 -11 -50 0 -69 -16 -69 -59 l0 -38 -62 15 c-35 8 -65 16 -66 18 -9 7 44 64 59 64 20 0 49 36 49 61 0 10 -28 41 -62 69 -59 49 -64 51 -105 45 -31 -4 -49 -2 -65 9 -37 26 -75 20 -115 -19z m860 -251 c7 -18 6 -18 -8 1 -9 11 -19 18 -22 15 -3 -3 -8 5 -9 17 -4 22 -3 22 14 5 10 -10 22 -27 25 -38z"/>
<path d="M467 2112 c-10 -10 -17 -23 -17 -28 0 -5 5 -1 11 9 6 10 20 22 32 27 15 6 17 9 6 9 -9 1 -23 -7 -32 -17z"/>
<path d="M1480 2100 c-8 -5 -26 -10 -40 -11 -14 0 -19 -3 -11 -6 7 -3 30 0 51 7 31 10 43 10 71 -3 19 -9 48 -18 66 -22 39 -8 55 -25 49 -56 -3 -13 -5 -28 -5 -33 -1 -5 -21 -6 -46 -4 -25 3 -45 2 -45 -3 0 -5 19 -9 42 -9 40 0 41 0 23 -20 -10 -11 -21 -17 -25 -15 -9 6 -72 -56 -64 -64 2 -3 18 10 34 29 17 19 30 31 30 26 0 -6 16 5 35 24 59 57 43 121 -35 137 -19 3 -46 12 -60 20 -30 15 -49 16 -70 3z"/>
<path d="M451 2059 c-1 -8 11 -26 26 -39 l27 -23 -50 -23 c-61 -28 -55 -30 13 -4 38 14 53 16 56 7 4 -9 6 -9 6 0 1 7 8 10 16 7 8 -4 15 -1 15 6 0 7 6 5 16 -5 19 -18 23 -16 29 14 5 25 8 25 -44 7 -37 -14 -42 -13 -58 2 -16 16 -15 17 5 20 27 4 19 22 -9 22 -11 0 -17 -4 -14 -10 3 -5 1 -10 -5 -10 -6 0 -15 10 -20 23 -5 14 -9 16 -9 6z"/>
<path d="M343 1915 c-87 -59 -131 -135 -140 -245 -5 -53 -11 -71 -34 -98 -41 -46 -88 -144 -101 -206 -8 -43 -7 -64 6 -109 16 -56 77 -137 103 -137 16 0 16 1 -3 49 -11 27 -15 62 -12 110 1 39 -1 71 -5 71 -10 0 -4 -157 7 -185 7 -17 5 -17 -13 4 -12 12 -19 27 -16 31 3 4 -1 10 -9 13 -16 6 -14 107 3 152 6 17 11 33 11 37 1 4 14 22 30 40 32 34 33 38 20 78 -7 24 -8 24 -15 5 -5 -11 -11 -22 -14 -25 -30 -26 -72 -128 -69 -167 2 -22 -2 -38 -9 -40 -17 -6 -17 24 0 30 7 3 8 6 1 6 -33 3 38 182 95 239 24 25 29 40 33 98 9 118 51 186 168 266 14 9 23 17 20 17 -3 1 -28 -15 -57 -34z"/>
<path d="M1493 1778 c-4 -7 -7 -163 -7 -347 l1 -334 -142 7 -143 6 -11 -63 c-17 -100 -16 -105 27 -116 64 -18 201 -16 219 2 21 21 83 171 73 177 -12 8 -21 409 -13 553 5 70 7 127 6 127 -1 0 -5 -6 -10 -12z m-203 -747 c0 -9 -5 -33 -11 -53 -8 -30 -15 -38 -33 -38 -15 0 -26 7 -29 20 -6 24 15 89 34 100 16 11 39 -6 39 -29z"/>
<path d="M1578 1093 c32 -3 55 -9 58 -17 3 -8 -15 -53 -40 -100 -25 -48 -46 -91 -46 -96 0 -5 12 -15 27 -22 37 -18 44 -54 39 -178 l-5 -105 10 80 c16 131 -3 215 -48 215 -20 0 -17 7 33 106 59 112 56 125 -23 122 l-58 -2 53 -3z"/>
<path d="M733 864 c-28 -53 -33 -74 -32 -126 1 -35 4 -74 9 -88 4 -14 5 14 2 61 -4 83 -3 89 28 148 18 34 31 63 29 65 -2 2 -19 -25 -36 -60z"/>
<path d="M1126 859 c-10 -54 -8 -62 16 -56 14 4 43 -4 75 -19 52 -24 54 -24 109 -8 31 9 72 14 90 11 32 -5 36 -3 55 35 11 22 19 42 17 43 -3 3 -304 25 -344 25 -6 0 -14 -14 -18 -31z"/>
<path d="M1240 555 c0 -8 7 -15 15 -15 8 0 15 7 15 15 0 8 -7 15 -15 15 -8 0 -15 -7 -15 -15z"/>
<path d="M1560 449 c-6 -24 -15 -54 -20 -67 -6 -13 -10 -33 -9 -45 0 -12 11 16 25 62 13 47 22 87 19 89 -2 2 -9 -16 -15 -39z"/>
<path d="M1156 333 c-12 -12 -6 -33 9 -33 8 0 15 6 15 14 0 17 -14 28 -24 19z"/>
<path d="M1320 325 c0 -8 7 -15 15 -15 8 0 15 7 15 15 0 8 -7 15 -15 15 -8 0 -15 -7 -15 -15z"/>
</g>
<g id="layer108" fill="#cc9a35" stroke="none">
<path d="M580 2080 c-10 -6 -8 -11 8 -19 24 -13 42 -14 42 -3 0 14 -37 30 -50 22z"/>
<path d="M712 2058 c6 -18 28 -21 28 -4 0 9 -7 16 -16 16 -9 0 -14 -5 -12 -12z"/>
<path d="M483 2037 c0 -9 9 -12 24 -9 12 2 20 8 17 13 -8 14 -41 11 -41 -4z"/>
<path d="M1666 2021 c3 -44 -9 -55 -55 -48 -23 3 -41 1 -41 -4 0 -5 19 -9 42 -9 40 0 41 0 23 -20 -10 -11 -21 -17 -25 -15 -9 6 -72 -56 -64 -64 2 -3 18 10 34 29 17 19 30 31 30 26 0 -6 16 5 35 24 26 25 35 42 35 66 0 18 -4 35 -8 38 -4 3 -7 -8 -6 -23z"/>
<path d="M1474 2019 c-8 -13 13 -29 39 -29 21 0 14 15 -13 30 -13 7 -21 7 -26 -1z"/>
<path d="M560 2006 c-19 -7 -42 -11 -50 -8 -13 5 -13 4 0 -10 8 -9 16 -12 18 -8 2 5 10 6 18 3 8 -3 14 0 14 7 0 7 6 5 16 -5 19 -18 23 -16 29 14 4 24 3 24 -45 7z"/>
<path d="M1390 2011 c0 -5 9 -11 19 -14 14 -3 18 -1 14 9 -6 15 -33 19 -33 5z"/>
<path d="M1335 1948 c-16 -40 -41 -305 -29 -317 2 -2 4 10 4 27 0 17 4 33 8 36 5 3 8 30 7 61 -1 33 3 55 9 55 7 0 8 3 1 8 -20 14 -15 32 10 32 15 0 25 -6 25 -14 0 -7 8 -20 18 -27 14 -11 15 -11 5 0 -6 7 -9 20 -6 27 6 17 -23 48 -32 34 -8 -13 -35 -13 -35 1 0 5 5 7 11 3 6 -3 15 -1 19 6 4 7 16 9 29 5 12 -3 19 -11 16 -16 -4 -5 -1 -9 5 -9 6 0 8 -5 4 -12 -5 -9 -2 -9 9 1 9 7 17 20 17 28 0 8 4 12 9 9 11 -7 73 49 64 57 -3 4 0 7 8 8 8 1 3 5 -11 9 -14 4 -41 5 -61 3 -24 -3 -45 0 -61 11 -25 17 -26 16 -43 -26z m78 -44 c7 -18 6 -18 -8 1 -9 11 -19 18 -22 15 -3 -3 -8 5 -9 17 -4 22 -3 22 14 5 10 -10 22 -27 25 -38z"/>
<path d="M1020 1933 c0 -17 37 -36 45 -23 6 10 -1 14 -19 11 -5 -1 -13 4 -17 11 -6 9 -9 10 -9 1z"/>
<path d="M1241 1920 c0 -13 -13 -35 -28 -48 -20 -16 -22 -20 -7 -13 31 15 46 37 41 63 -4 23 -4 23 -6 -2z"/>
<path d="M954 1613 c11 -62 15 -68 39 -69 21 -2 24 2 21 30 -5 45 -24 76 -47 76 -17 0 -18 -5 -13 -37z"/>
<path d="M1060 1576 c0 -7 7 -19 15 -26 16 -13 20 -3 9 24 -8 20 -24 21 -24 2z"/>
<path d="M516 1572 c16 -10 34 -48 27 -56 -13 -12 -23 -5 -24 17 -1 18 -2 18 -6 4 -4 -17 -6 -17 -17 -2 -10 13 -15 5 -37 -52 -41 -106 -42 -111 -22 -116 16 -4 16 -5 1 -6 -12 -1 -22 -18 -34 -57 -17 -61 -39 -68 -39 -12 0 21 -5 35 -12 35 -7 0 -13 -5 -13 -11 0 -6 -4 -5 -9 2 -4 7 -17 14 -29 15 -12 0 -24 8 -27 15 -3 10 0 12 10 8 8 -3 15 -2 15 3 0 5 -10 11 -21 14 -15 4 -20 11 -15 23 5 14 4 15 -8 4 -13 -10 -12 -19 14 -70 21 -42 34 -58 47 -56 10 2 12 1 6 -1 -21 -7 -15 -18 42 -73 40 -37 62 -51 75 -47 11 3 23 1 26 -4 3 -5 38 -8 77 -7 60 3 76 7 94 26 22 22 25 44 10 70 -5 6 -4 12 1 12 5 0 12 9 15 20 3 11 1 18 -4 14 -9 -5 -13 9 -10 34 1 8 -6 21 -17 30 -14 12 -17 23 -11 37 12 31 10 35 -8 29 -16 -5 -16 -4 0 6 17 11 17 13 -3 30 -15 13 -17 19 -8 23 7 3 2 6 -12 7 -14 1 -19 4 -12 7 21 8 13 25 -10 18 -16 -6 -20 -4 -15 8 8 21 -15 67 -33 67 -10 0 -11 -3 -4 -8z"/>
<path d="M857 1563 c-8 -13 23 -73 39 -73 13 0 9 29 -6 40 -4 3 -11 13 -17 24 -6 10 -13 14 -16 9z"/>
<path d="M175 1525 c-5 -11 -11 -22 -14 -25 -30 -26 -72 -128 -69 -167 2 -22 -2 -38 -9 -40 -17 -6 -17 24 0 30 6 3 7 6 2 6 -6 1 -10 18 -8 39 2 34 1 33 -8 -10 -9 -37 -8 -58 5 -101 16 -57 77 -137 103 -137 16 0 16 2 1 37 -6 15 -15 53 -19 83 l-7 55 2 -55 c1 -30 6 -64 10 -75 7 -17 5 -17 -13 4 -12 12 -19 27 -16 31 3 4 -1 10 -9 13 -16 6 -14 107 4 154 6 18 11 34 9 35 -1 2 12 19 29 38 34 36 35 40 22 80 -7 24 -8 24 -15 5z"/>
<path d="M189 1409 c-11 -11 -18 -23 -15 -26 7 -8 27 7 21 17 -3 4 3 11 12 15 10 3 19 1 21 -4 4 -13 22 -5 22 10 0 17 -40 9 -61 -12z"/>
<path d="M886 1280 c-3 -8 -9 -48 -14 -88 -7 -75 -23 -96 -32 -43 -3 21 -9 28 -17 23 -22 -14 27 -84 75 -109 52 -26 133 -24 164 4 18 16 18 18 3 29 -12 9 -13 13 -3 16 10 4 10 9 -2 23 -10 13 -11 16 -2 11 11 -7 11 -4 1 12 -7 12 -16 19 -20 16 -4 -2 -5 5 -2 16 4 15 0 20 -13 20 -14 0 -15 3 -6 12 15 15 16 42 2 33 -6 -4 -8 -11 -5 -16 4 -5 2 -9 -3 -9 -6 0 -13 7 -16 16 -4 9 -13 14 -21 10 -9 -3 -15 1 -15 10 0 10 6 14 15 10 8 -3 15 -2 15 3 0 5 -18 8 -40 8 -30 0 -40 -4 -41 -16 0 -12 -2 -11 -9 4 -6 16 -9 17 -14 5z"/>
<path d="M636 1141 c-3 -4 6 -19 20 -32 21 -20 27 -21 34 -9 15 24 12 30 -17 30 -22 0 -25 2 -13 10 13 8 13 10 -2 10 -9 0 -19 -4 -22 -9z"/>
<path d="M703 1089 c-23 -8 -22 -9 19 -78 l42 -70 36 16 c19 9 45 16 57 16 31 1 17 12 -15 12 -18 0 -26 5 -24 14 2 9 -3 11 -15 7 -12 -5 -8 4 12 25 17 18 23 28 15 22 -8 -6 -26 -14 -40 -18 l-25 -8 24 20 25 20 -33 -5 c-22 -3 -31 -9 -27 -18 3 -8 2 -14 -3 -14 -4 0 -12 15 -17 34 -8 30 -12 33 -31 25z"/>
<path d="M1613 630 c0 -30 2 -43 4 -27 2 15 2 39 0 55 -2 15 -4 2 -4 -28z"/>
<path d="M1023 603 c-7 -3 -9 -11 -6 -19 3 -8 -1 -14 -11 -14 -9 0 -16 -4 -16 -10 0 -5 6 -10 14 -10 7 0 19 -7 26 -15 9 -10 9 -15 1 -15 -6 0 -11 5 -11 10 0 6 -5 10 -10 10 -6 0 -6 -7 2 -19 7 -11 20 -18 31 -15 13 2 17 -1 13 -11 -3 -9 1 -15 9 -15 9 0 15 -9 15 -22 0 -22 20 -64 20 -44 0 6 7 1 16 -10 8 -10 13 -13 9 -6 -3 6 -1 12 4 12 6 0 11 -6 11 -12 0 -14 15 -17 110 -23 58 -3 68 0 97 23 30 26 30 27 8 27 -12 0 -21 -5 -18 -11 2 -6 -3 -17 -12 -24 -14 -12 -16 -10 -10 13 8 31 -2 35 -21 10 -13 -17 -13 -17 -15 2 -1 11 -1 24 0 29 1 5 -7 6 -19 3 -11 -3 -17 -1 -14 4 7 12 -18 37 -34 31 -8 -2 -12 6 -11 25 1 17 3 21 6 11 2 -10 11 -18 19 -18 13 0 13 3 -2 17 -9 10 -22 18 -29 19 -7 1 -23 5 -35 9 -15 5 -20 4 -16 -4 5 -7 1 -8 -10 -4 -11 4 -13 8 -6 11 7 2 12 8 12 14 0 6 -6 8 -14 5 -8 -3 -22 2 -33 12 -10 10 -25 15 -32 13 -8 -3 -11 0 -8 5 6 10 -9 13 -30 6z"/>
<path d="M1371 560 c-8 -14 -18 -28 -24 -31 -5 -4 -7 -14 -4 -23 12 -31 157 -17 157 15 0 6 -6 9 -12 6 -19 -6 -49 12 -43 26 4 7 -1 3 -9 -7 -16 -20 -21 -14 -17 24 1 11 -2 11 -13 -3 -14 -18 -14 -18 -18 0 -3 16 -6 15 -17 -7z m23 -29 c7 -10 -18 -34 -27 -25 -7 8 3 34 13 34 5 0 11 -4 14 -9z"/>
<path d="M1275 470 c-3 -5 1 -10 10 -10 10 0 13 -5 9 -12 -4 -7 -3 -8 5 -4 9 6 9 11 0 22 -14 17 -16 17 -24 4z"/>
<path d="M1005 281 c-3 -8 -3 -16 0 -19 3 -3 5 0 5 7 0 7 4 9 10 6 5 -3 19 0 31 8 19 14 19 15 -10 13 -17 0 -33 -7 -36 -15z"/>
<path d="M1050 270 c0 -5 -7 -10 -15 -10 -46 0 -21 -79 33 -104 20 -10 34 -15 30 -11 -11 11 15 33 32 27 13 -5 13 -3 1 12 -8 9 -21 14 -30 11 -11 -4 -10 -1 4 15 20 22 17 30 -13 33 -11 0 -20 4 -20 7 0 3 0 11 -1 18 -1 14 -21 17 -21 2z"/>
<path d="M1155 132 c-16 -2 -37 -10 -46 -18 -9 -8 -23 -12 -30 -9 -8 3 -32 -1 -54 -9 -22 -8 -35 -15 -28 -15 6 -1 24 4 39 9 21 8 35 7 61 -5 19 -9 37 -14 40 -11 4 3 1 6 -5 6 -7 0 -12 4 -12 9 0 5 31 9 70 9 38 0 67 -4 64 -9 -3 -5 -15 -9 -26 -9 -12 0 -18 -3 -15 -6 9 -10 98 17 91 27 -3 5 -44 10 -92 11 l-87 1 65 6 c53 5 59 7 30 11 -19 3 -48 3 -65 2z"/>
<path d="M1343 125 c0 -8 4 -12 9 -9 5 3 14 1 21 -4 18 -14 61 -22 74 -14 8 5 -1 8 -21 9 -18 1 -45 8 -58 17 -21 14 -25 14 -25 1z"/>
<path d="M907 104 c-8 -13 20 -41 30 -30 3 3 1 6 -5 6 -6 0 -12 8 -14 18 -2 11 -6 13 -11 6z"/>
</g>
<g id="layer109" fill="#998a6b" stroke="none">
<path d="M891 2058 c0 -9 -4 -25 -7 -35 -5 -17 -5 -17 6 0 6 10 9 25 7 35 -4 15 -5 15 -6 0z"/>
<path d="M1043 2000 c-35 -14 -27 -20 10 -8 17 6 34 13 36 14 8 7 -24 3 -46 -6z"/>
<path d="M936 1977 c-11 -8 -16 -21 -13 -33 4 -17 5 -16 6 3 1 16 9 24 29 29 44 9 49 12 21 13 -14 1 -33 -5 -43 -12z"/>
<path d="M1336 1948 c-19 -45 -23 -80 -30 -228 -3 -66 -1 -83 5 -55 4 22 8 76 8 121 1 52 8 102 20 140 23 69 21 83 -3 22z"/>
<path d="M1497 1783 c-10 -17 -17 -396 -10 -532 6 -115 11 -145 23 -148 10 -3 11 -2 4 4 -15 11 -27 388 -17 556 5 70 7 127 6 127 -1 0 -4 -3 -6 -7z"/>
<path d="M202 1656 c-1 -30 -9 -58 -19 -70 l-17 -21 22 21 c20 17 23 29 19 70 l-3 49 -2 -49z"/>
<path d="M1290 1584 c0 -17 -4 -34 -10 -40 -5 -5 -6 -15 0 -23 6 -10 10 0 15 33 4 26 5 50 1 53 -3 4 -6 -7 -6 -23z"/>
<path d="M107 1474 c-37 -74 -33 -83 4 -10 17 32 29 60 27 62 -2 2 -16 -21 -31 -52z"/>
<path d="M202 1423 c-7 -2 -17 -14 -23 -26 -11 -22 -11 -22 10 1 22 23 58 31 45 10 -4 -7 -3 -8 4 -4 29 18 0 34 -36 19z"/>
<path d="M66 1363 c-7 -48 -8 -78 0 -71 7 8 18 108 11 108 -2 0 -7 -17 -11 -37z"/>
<path d="M150 1325 c0 -14 2 -25 4 -25 2 0 6 11 8 25 3 14 1 25 -3 25 -5 0 -9 -11 -9 -25z"/>
<path d="M151 1245 c0 -27 3 -56 8 -63 5 -8 6 8 4 40 -6 73 -11 83 -12 23z"/>
<path d="M1275 1090 c4 -6 1 -10 -6 -10 -8 0 -6 -6 4 -18 20 -22 21 -34 6 -84 -8 -31 -15 -38 -34 -38 -14 0 -25 5 -25 10 0 6 -4 10 -8 10 -5 0 -9 -6 -9 -14 0 -19 46 -27 146 -25 91 2 98 6 126 84 10 28 22 54 27 59 14 17 9 26 -14 26 -13 0 -67 2 -121 5 -60 2 -95 0 -92 -5z"/>
<path d="M1612 1006 c-18 -35 -32 -67 -32 -72 0 -5 16 22 36 60 19 37 34 70 32 72 -2 2 -18 -25 -36 -60z"/>
<path d="M737 985 c15 -24 29 -42 31 -40 4 4 -46 85 -53 85 -2 0 8 -20 22 -45z"/>
<path d="M701 744 c1 -38 4 -80 9 -94 4 -14 5 16 2 65 -6 108 -12 126 -11 29z"/>
<path d="M1623 745 c0 -33 2 -45 4 -27 2 18 2 45 0 60 -2 15 -4 0 -4 -33z"/>
<path d="M1613 645 c0 -22 2 -30 4 -17 2 12 2 30 0 40 -3 9 -5 -1 -4 -23z"/>
<path d="M721 615 c-1 -15 60 -199 70 -210 5 -5 -6 36 -24 90 -42 123 -45 133 -46 120z"/>
<path d="M1560 449 c-6 -24 -15 -57 -20 -73 -6 -16 -10 -36 -9 -45 0 -9 11 22 25 68 13 47 22 87 19 89 -2 2 -9 -16 -15 -39z"/>
<path d="M819 289 c25 -91 60 -190 47 -134 -16 69 -60 221 -67 229 -5 5 5 -38 20 -95z"/>
<path d="M1506 239 c-9 -39 -15 -73 -13 -76 3 -2 12 28 21 68 9 40 14 74 12 76 -2 3 -11 -28 -20 -68z"/>
<path d="M1360 122 c28 -23 69 -34 88 -23 7 4 -2 7 -22 8 -18 1 -46 9 -62 18 l-29 17 25 -20z"/>
</g>
<g id="layer110" fill="#798693" stroke="none">
<path d="M1290 1089 c0 -5 -7 -9 -17 -9 -15 0 -15 -1 0 -18 20 -22 21 -34 6 -84 -8 -31 -15 -38 -34 -38 -14 0 -25 5 -25 10 0 6 -4 10 -10 10 -18 0 -6 -25 15 -32 11 -3 52 -6 90 -7 62 -1 72 2 85 22 8 12 15 24 15 27 1 8 35 70 39 70 1 0 3 -7 3 -15 0 -8 -4 -15 -9 -15 -4 0 -8 -8 -8 -18 0 -11 -9 -27 -20 -37 -23 -21 -26 -35 -7 -35 21 0 42 30 62 85 10 28 22 54 27 59 14 17 9 26 -14 26 -13 0 -62 2 -110 4 -49 2 -88 0 -88 -5z"/>
<path d="M1540 1094 c34 -7 108 -8 103 -1 -2 4 -30 6 -61 6 -31 -1 -50 -3 -42 -5z"/>
<path d="M1126 859 c-9 -48 -8 -49 28 -49 19 0 36 -6 39 -12 3 -10 38 -13 131 -13 l128 0 20 38 c11 22 18 41 16 42 -3 3 -304 25 -344 25 -6 0 -14 -14 -18 -31z m332 -6 c-10 -2 -28 -2 -40 0 -13 2 -5 4 17 4 22 1 32 -1 23 -4z m-230 -30 c-10 -2 -28 -2 -40 0 -13 2 -5 4 17 4 22 1 32 -1 23 -4z m110 -30 c-10 -2 -28 -2 -40 0 -13 2 -5 4 17 4 22 1 32 -1 23 -4z"/>
<path d="M1240 556 c0 -9 7 -16 16 -16 17 0 14 22 -4 28 -7 2 -12 -3 -12 -12z"/>
</g>
<g id="layer111" fill="#aca9b0" stroke="none">
<path d="M1290 1090 c0 -5 5 -10 11 -10 5 0 7 -5 4 -10 -4 -6 -12 -7 -18 -3 -8 4 -8 2 1 -9 10 -13 10 -25 0 -63 -7 -26 -18 -50 -25 -52 -34 -13 -6 -24 57 -22 58 2 71 5 75 20 4 11 11 19 16 19 12 0 11 -14 -2 -27 -9 -9 -7 -11 8 -7 26 7 58 83 42 99 -6 6 -9 6 -8 0 2 -5 -1 -25 -5 -43 -6 -27 -10 -31 -22 -21 -19 15 -18 35 2 43 9 3 14 12 11 19 -2 6 3 17 12 24 15 11 14 13 -1 29 -20 20 -118 33 -118 15 0 -9 -5 -9 -20 -1 -14 7 -20 7 -20 0z"/>
<path d="M1130 867 c0 -14 -3 -32 -6 -41 -5 -13 1 -16 29 -16 19 0 37 -5 39 -12 3 -8 31 -13 79 -14 56 -2 65 -1 39 5 l-35 8 38 2 c20 0 37 -2 37 -6 0 -5 24 -6 54 -5 46 3 55 7 65 28 21 48 17 51 -86 58 -54 3 -133 9 -175 12 l-78 7 0 -26z m328 -14 c-10 -2 -28 -2 -40 0 -13 2 -5 4 17 4 22 1 32 -1 23 -4z m-230 -30 c-10 -2 -28 -2 -40 0 -13 2 -5 4 17 4 22 1 32 -1 23 -4z"/>
<path d="M1246 563 c-11 -11 -6 -23 9 -23 8 0 15 4 15 9 0 13 -16 22 -24 14z"/>
<path d="M1326 333 c-11 -11 -6 -23 9 -23 8 0 15 4 15 9 0 13 -16 22 -24 14z"/>
<path d="M1150 320 c0 -5 7 -10 15 -10 8 0 15 5 15 10 0 6 -7 10 -15 10 -8 0 -15 -4 -15 -10z"/>
</g>
<g id="layer112" fill="#dfe0e1" stroke="none">
<path d="M1390 1092 c-22 -8 -40 -29 -40 -47 0 -9 -5 -13 -11 -9 -7 4 -9 -2 -7 -17 2 -15 -2 -23 -9 -21 -7 1 -12 -1 -11 -5 1 -5 -3 -18 -10 -31 -12 -20 -10 -23 10 -31 29 -11 39 -3 69 56 13 27 28 51 34 55 5 4 6 8 1 8 -5 0 -3 6 3 14 14 17 -6 36 -29 28z"/>
<path d="M1453 1012 c-1 -9 -4 -28 -8 -42 -4 -15 0 -12 10 9 8 19 12 38 7 43 -4 4 -8 0 -9 -10z"/>
<path d="M1390 949 c-7 -11 -9 -23 -7 -26 3 -2 8 5 12 16 3 12 11 21 16 21 12 0 11 -14 -2 -27 -9 -9 -7 -10 9 -6 18 4 20 9 11 24 -13 25 -26 24 -39 -2z"/>
<path d="M1142 878 c-7 -7 -12 -25 -12 -40 0 -33 28 -39 49 -9 8 10 21 16 31 14 9 -3 25 4 35 14 18 17 18 18 -11 24 -48 11 -79 10 -92 -3z"/>
<path d="M1340 872 c0 -5 -6 -10 -12 -9 -7 0 -22 -1 -33 -2 -17 -1 -18 -3 -5 -11 12 -8 9 -10 -12 -10 -16 0 -28 -4 -28 -10 0 -5 -7 -10 -16 -10 -24 0 -12 -35 14 -38 12 -2 22 1 22 7 0 6 7 11 15 11 8 0 15 5 15 11 0 5 5 7 11 4 15 -10 61 4 54 15 -3 6 2 10 13 10 10 0 19 7 19 15 0 8 -6 15 -13 15 -7 0 -19 3 -28 6 -9 3 -16 2 -16 -4z"/>
<path d="M1461 852 c-7 -10 -21 -19 -32 -20 -42 -4 -48 -6 -43 -14 3 -4 -4 -8 -15 -8 -12 0 -21 -4 -21 -10 0 -5 22 -10 48 -10 45 0 50 2 67 35 20 37 17 56 -4 27z"/>
</g>


</svg>